<svg width="24" height="25" viewBox="0 0 24 25" fill="none" xmlns="http://www.w3.org/2000/svg">
<g clip-path="url(#clip0_3_26942)">
<path fill-rule="evenodd" clip-rule="evenodd" d="M12 24.082C18.6274 24.082 24 18.7094 24 12.082C24 5.45461 18.6274 0.0820312 12 0.0820312C5.37258 0.0820312 0 5.45461 0 12.082C0 18.7094 5.37258 24.082 12 24.082Z" fill="#00843D"/>
<path fill-rule="evenodd" clip-rule="evenodd" d="M7.75781 7.91406C8.73828 8.38672 9.90625 7.91406 10.3281 7.26172C10.7617 6.64844 10.8164 5.62891 10.0664 4.6875C11.2266 5.65234 11.4883 6.74609 10.9063 7.64453C10.1328 8.67578 8.42578 8.64453 7.75781 7.91406Z" fill="white"/>
<path fill-rule="evenodd" clip-rule="evenodd" d="M9.49609 5.52344H9.69531L9.53906 5.64844L9.59766 5.84375L9.43359 5.73047L9.27734 5.84375L9.32812 5.65234L9.16797 5.52734L9.36719 5.52344L9.43359 5.33203L9.49609 5.52344ZM8.52344 6.74609H8.71875L8.56641 6.87109L8.625 7.06641L8.46094 6.94922L8.29687 7.07031L8.35547 6.87109L8.19531 6.75391L8.39453 6.74609L8.45703 6.55078L8.52344 6.74609ZM8.58594 5.78125H8.78516L8.62891 5.91016L8.6875 6.10156L8.52734 5.98438L8.36328 6.10547L8.42187 5.91016L8.26172 5.78516L8.46094 5.78125L8.52344 5.58984L8.58594 5.78125ZM8.58594 4.81641H8.78516L8.625 4.94531L8.68359 5.14063L8.52344 5.02734L8.36328 5.14063L8.41797 4.94922L8.25781 4.82422L8.45703 4.82031L8.51953 4.62891L8.58594 4.81641ZM7.50781 6.03906H7.70312L7.54687 6.16406L7.60547 6.35938L7.44531 6.24219L7.28125 6.36328L7.33984 6.16406L7.17969 6.04688L7.37891 6.03906L7.44141 5.84375L7.50781 6.03906Z" fill="white"/>
<path fill-rule="evenodd" clip-rule="evenodd" d="M6 22.4766C2.41319 20.4017 0 16.5237 0 12.082C0 7.6403 2.41319 3.76223 6 1.68738V22.4766Z" fill="#CA3745"/>
<path fill-rule="evenodd" clip-rule="evenodd" d="M0.403876 8.9834C0.420545 8.92086 0.437706 8.85852 0.455356 8.79639L0.507812 8.86714L0.457031 8.92964L0.601562 9.12105L0.507812 9.24996L0.601562 9.37886L0.746094 9.18355L1.08594 9.64058L0.746094 10.0859L0.605469 9.89058L0.507812 10.0234L0.601562 10.1484L0.460938 10.3437L0.507812 10.4101L0.171875 10.8593V10.7304L0.410156 10.414L0.363281 10.3437L0.503906 10.1523L0.457031 10.0898L0.363281 10.2187L0.3125 10.1523L0.652344 9.70308L0.699219 9.76949L0.652344 9.83199L0.75 9.96089L0.988281 9.64058L0.746094 9.32417L0.652344 9.44527L0.699219 9.51167L0.652344 9.57417L0.353484 9.17913C0.361773 9.14576 0.370202 9.11245 0.37877 9.0792L0.457031 9.18355L0.507812 9.12105L0.403876 8.9834ZM0.279305 14.6678C0.266106 14.6077 0.253358 14.5474 0.241064 14.487L0.507812 14.8437L0.457031 14.9101L0.601562 15.1015L0.507812 15.2304L0.601562 15.3593L0.75 15.1679L1.08594 15.625L0.746094 16.0703L0.617235 15.8913C0.604724 15.8539 0.592393 15.8164 0.580242 15.7789L0.652344 15.6835L0.699219 15.746L0.652344 15.8085L0.75 15.9375L0.988281 15.6171L0.746094 15.3007L0.652344 15.4257L0.699219 15.4882L0.652344 15.5507L0.421352 15.2454C0.40339 15.1795 0.385975 15.1134 0.369114 15.047L0.457031 15.1679L0.507812 15.1015L0.363281 14.9101L0.410156 14.8437L0.279305 14.6678ZM0.179068 10.0051C0.19283 9.92626 0.207362 9.84765 0.222656 9.76931V9.89449L0.179068 10.0051ZM0.235781 9.70308C0.24444 9.66003 0.253329 9.61706 0.262447 9.57417H0.363281L0.460938 9.64058L0.363281 9.70308H0.235781ZM0.171875 13.8203V13.9453L0.507812 13.496L0.460938 13.4335L0.601562 13.2382L0.507812 13.1093L0.605469 12.9804L0.746094 13.1757L1.08594 12.7343L0.75 12.2734L0.601562 12.4687L0.507812 12.3398L0.601562 12.207L0.457031 12.0195L0.507812 11.9531L0.171875 11.5V11.6328L0.410156 11.9531L0.363281 12.0195L0.507812 12.207L0.457031 12.2734L0.363281 12.1445L0.3125 12.207L0.652344 12.6601L0.699219 12.5937L0.652344 12.5312L0.746094 12.4101L0.988281 12.7265L0.75 13.0468L0.652344 12.9179L0.699219 12.8515L0.652344 12.789L0.3125 13.2382L0.363281 13.3007L0.457031 13.1757L0.503906 13.2382L0.363281 13.4335L0.410156 13.496L0.171875 13.8203ZM0.171875 12.3398L0.222656 12.4687V12.664H0.363281L0.460938 12.7265L0.363281 12.7851H0.222656V12.9765L0.171875 13.1093V12.3398Z" fill="#FAAE29"/>
<path fill-rule="evenodd" clip-rule="evenodd" d="M5.95703 7.77344V7.64453L5.71875 7.32422L5.76563 7.25781L5.62109 7.07031L5.66797 7L5.76563 7.13281L5.81641 7.07031L5.48047 6.61719L5.42969 6.68359L5.48047 6.74609L5.375 6.875L5.14063 6.55078L5.37891 6.23828L5.48047 6.35938L5.42969 6.42578L5.47656 6.48828L5.8125 6.03906L5.76563 5.97656L5.66797 6.10156L5.62109 6.03906L5.76172 5.84375L5.71875 5.78125L5.95703 5.45703V5.33203L5.62109 5.78125L5.66797 5.84375L5.52734 6.03906L5.62109 6.16797L5.52344 6.29688L5.37891 6.10156L5.03906 6.55859L5.37891 7L5.52344 6.80859L5.62109 6.9375L5.52344 7.07031L5.66797 7.25781L5.62109 7.32422L5.95703 7.77344Z" fill="#FAAE29"/>
<path fill-rule="evenodd" clip-rule="evenodd" d="M5.95703 6.16797L5.90625 6.29687V6.49219H5.76562L5.66797 6.55469L5.76172 6.62109H5.90625V6.8125L5.95703 6.94141V6.16797Z" fill="#FAAE29"/>
<path fill-rule="evenodd" clip-rule="evenodd" d="M5.97266 10.8633V10.7305L5.73437 10.4141L5.78125 10.3438L5.64062 10.1523L5.6875 10.0898L5.78125 10.2188L5.83203 10.1523L5.49219 9.70312L5.44141 9.76953L5.49219 9.83203L5.39453 9.96094L5.15625 9.64062L5.39844 9.32422L5.49219 9.44531L5.44141 9.50781L5.49219 9.57422L5.83203 9.125L5.78125 9.05859L5.6875 9.1875L5.63672 9.125L5.78125 8.93359L5.73437 8.86719L5.97266 8.54688V8.41797L5.63672 8.86719L5.6875 8.93359L5.54297 9.125L5.63672 9.25L5.54297 9.38281L5.39844 9.1875L5.05859 9.64453L5.39844 10.0898L5.53906 9.89453L5.63672 10.0234L5.54297 10.1523L5.68359 10.3438L5.63672 10.4102L5.97266 10.8594V10.8633Z" fill="#FAAE29"/>
<path fill-rule="evenodd" clip-rule="evenodd" d="M5.97266 9.25L5.92578 9.38281V9.57422H5.77734L5.67969 9.64062L5.77734 9.70312H5.91797V9.89453L5.97266 10.0234V9.25Z" fill="#FAAE29"/>
<path fill-rule="evenodd" clip-rule="evenodd" d="M5.95703 13.9453V13.8203L5.71875 13.4961L5.76563 13.4336L5.62109 13.2383L5.66797 13.1758L5.76563 13.3008L5.81641 13.2383L5.48047 12.7891L5.42969 12.8516L5.48047 12.918L5.375 13.0469L5.14063 12.7266L5.37891 12.4102L5.48047 12.5312L5.42969 12.5938L5.47656 12.6602L5.8125 12.207L5.76563 12.1445L5.66797 12.2734L5.62109 12.207L5.76172 12.0195L5.71875 11.9531L5.95703 11.6328V11.5L5.62109 11.9531L5.66797 12.0195L5.52734 12.207L5.62109 12.3398L5.52344 12.4688L5.37891 12.2734L5.03906 12.7344L5.37891 13.1758L5.52344 12.9805L5.62109 13.1094L5.52344 13.2383L5.66797 13.4336L5.62109 13.4961L5.95313 13.9453H5.95703Z" fill="#FAAE29"/>
<path fill-rule="evenodd" clip-rule="evenodd" d="M5.95703 12.3398L5.90625 12.4688V12.6641H5.76562L5.66797 12.7266L5.76172 12.7891H5.90625V12.9805L5.95703 13.1133V12.3398Z" fill="#FAAE29"/>
<path fill-rule="evenodd" clip-rule="evenodd" d="M5.95703 16.8398V16.707L5.71875 16.3906L5.76563 16.3242L5.62109 16.1328L5.66797 16.0703L5.76563 16.1953L5.81641 16.1328L5.48047 15.6836L5.42969 15.7461L5.48047 15.8086L5.375 15.9375L5.14063 15.6172L5.37891 15.3008L5.48047 15.4258L5.42969 15.4883L5.47656 15.5508L5.8125 15.1055L5.76563 15.043L5.66797 15.1719L5.62109 15.1055L5.76172 14.9141L5.71875 14.8477L5.95703 14.5273V14.3984L5.62109 14.8477L5.66797 14.9141L5.52734 15.1055L5.62109 15.2344L5.52344 15.3633L5.37891 15.1719L5.03906 15.6289L5.37891 16.0703L5.52344 15.8789L5.62109 16.0039L5.52344 16.1367L5.66797 16.3281L5.62109 16.3906L5.95703 16.8438V16.8398Z" fill="#FAAE29"/>
<path fill-rule="evenodd" clip-rule="evenodd" d="M5.95703 15.2305L5.90625 15.3594V15.5508H5.76562L5.66797 15.6172L5.76172 15.6836H5.90625V15.875L5.95703 16V15.2266V15.2305Z" fill="#FAAE29"/>
<path fill-rule="evenodd" clip-rule="evenodd" d="M3.5651 20.6174C3.47727 20.5306 3.39079 20.4425 3.30566 20.353C3.30793 20.3525 3.31021 20.352 3.31249 20.3516C3.62935 20.283 3.78875 20.3862 3.93107 20.4783C4.02386 20.5384 4.10939 20.5938 4.22655 20.5938C4.52733 20.5938 4.99999 20.3477 4.99999 20.3477C4.99999 20.3477 4.52733 20.8164 4.15624 20.8047C3.98779 20.7993 3.87141 20.7459 3.75765 20.6938C3.69538 20.6653 3.63391 20.6372 3.5651 20.6174ZM5.95702 4.17578V4.30078L5.62108 3.85156L5.66796 3.78906L5.52343 3.59375L5.62108 3.46875L5.52343 3.33984L5.3789 3.53125L5.03905 3.08203H5.13671L5.37499 3.40625L5.47655 3.27734L5.42968 3.21094L5.47655 3.14453L5.81249 3.59375L5.76561 3.66406L5.66796 3.53125L5.62108 3.59375L5.76561 3.78906L5.71874 3.85156L5.95702 4.17578ZM5.66796 3.08203H5.95702V3.46875L5.90624 3.33984V3.14453H5.76171L5.66796 3.08203Z" fill="#FAAE29"/>
<path fill-rule="evenodd" clip-rule="evenodd" d="M4.26561 20.2734C4.31249 20.1757 4.42577 19.7539 4.36717 19.6992C4.27342 19.664 4.03124 20.0937 4.05077 20.4804C4.21483 20.5703 4.7578 20.4453 4.74999 20.332C4.71092 20.1757 4.40624 20.2265 4.26561 20.2695V20.2734Z" fill="#FAAE29"/>
<path fill-rule="evenodd" clip-rule="evenodd" d="M4.59765 19.9023C4.6289 19.7968 4.67187 19.3515 4.60546 19.3164C4.51171 19.3086 4.33593 19.7968 4.42187 20.1679C4.58984 20.2109 5.10546 19.9375 5.07812 19.832C5.01952 19.6875 4.72655 19.8242 4.59765 19.9023Z" fill="#FAAE29"/>
<path fill-rule="evenodd" clip-rule="evenodd" d="M4.86328 19.4922C4.88281 19.3789 4.89063 18.9297 4.82031 18.9102C4.72656 18.918 4.59766 19.4258 4.71094 19.7812C4.88672 19.7969 5.3711 19.4453 5.33985 19.3438C5.26172 19.207 4.98828 19.3906 4.86328 19.4922Z" fill="#FAAE29"/>
<path fill-rule="evenodd" clip-rule="evenodd" d="M5.07423 19.0547C5.08204 18.9414 5.03907 18.4961 4.96485 18.4883C4.8711 18.5117 4.8047 19.0469 4.95704 19.375C5.13282 19.3516 5.57032 18.9062 5.52345 18.8125C5.43751 18.6914 5.1836 18.9297 5.07423 19.0547Z" fill="#FAAE29"/>
<path fill-rule="evenodd" clip-rule="evenodd" d="M5.22265 18.5937C5.21875 18.4805 5.125 18.0469 5.05469 18.0547C4.96094 18.0976 4.95312 18.6406 5.14062 18.9336C5.30859 18.8789 5.69531 18.3555 5.64062 18.2656C5.53906 18.168 5.3125 18.4531 5.21875 18.5937H5.22265Z" fill="#FAAE29"/>
<path fill-rule="evenodd" clip-rule="evenodd" d="M5.17969 18.0742C5.19531 18.5313 5.27344 18.5313 5.42578 18.1953C5.49609 18.0703 5.50391 17.5391 5.44141 17.5195C5.35547 17.5195 5.18359 17.8984 5.17969 18.0742Z" fill="#FAAE29"/>
<path fill-rule="evenodd" clip-rule="evenodd" d="M5.05859 14.6445H4.77344V14.8398H4.49609V15.0312H3.38672L3.19922 15.2305L3.29297 15.3281H3.75781L3.84766 15.2305H3.38672L3.47266 15.1289H4.125L3.84766 15.4219H3.20312L3.01953 15.3281L2.83203 15.4219H2.18359L1.90625 15.1289H2.55469L2.64844 15.2305H2.18359L2.27734 15.3281H2.74219L2.83203 15.2305L2.64844 15.0312H1.62891V14.8398H1.35156V14.6445H1.07422V13.7617H1.35156V13.5703H1.62891V13.3711H2.64844L2.83203 13.1797L2.74219 13.0781H2.27734L2.18359 13.1797H2.64844L2.55469 13.2734H1.90625L2.18359 12.9805H2.83594L3.02344 13.0781L3.20703 12.9805H3.85547L4.13281 13.2734H3.48437L3.39453 13.1797H3.85547L3.76172 13.0781H3.30078L3.20312 13.1797L3.39062 13.3711H4.5V13.5703H4.77734V13.7617H5.05859V14.6445Z" fill="#CA3745"/>
<path fill-rule="evenodd" clip-rule="evenodd" d="M2.18359 12.9766V12.9778H2.83734L3.02342 13.0751L3.20703 12.9774L3.85831 12.9778L3.85742 12.9786L4.13281 13.2695V13.2761H3.48157L3.48244 13.2753L3.39453 13.1836V13.177H3.84933L3.76054 13.0808H3.30193L3.20687 13.1797L3.39175 13.3684H4.5V13.3711H4.50269V13.5676H4.77734V13.5703H4.78003V13.759H5.05859V13.7617H5.06128V14.6445H5.05859V14.6472H4.77612V14.8398H4.77344V14.8425H4.49878V15.0313H4.49609V15.0339H3.38788L3.20292 15.2305L3.29411 15.3254H3.75663L3.84154 15.2332H3.38989L3.38467 15.2287L3.47266 15.1247V15.1262H4.12216L4.12695 15.1308L3.84766 15.4258V15.4246H3.20175L3.01952 15.3311L2.83203 15.4249L2.18076 15.4246L2.18164 15.4237L1.90625 15.1328V15.1262H2.5576L2.55666 15.1271L2.64844 15.2265V15.2332H2.1899L2.27849 15.3254H2.74101L2.82838 15.2305L2.64726 15.0339H1.62891V15.0313H1.62622V14.8425H1.35156V14.8398H1.34888V14.6472H1.07422V14.6445H1.07153V13.7617H1.07422V13.759H1.34888V13.5703H1.35156V13.5676H1.62622V13.3711H1.62891V13.3684H2.64729L2.82838 13.1796L2.74098 13.0808H2.27852L2.18973 13.177H2.64575L2.65034 13.1816L2.55469 13.2772V13.2761H1.90909L1.9043 13.2716L2.18359 12.9766ZM1.91249 13.2708H2.55358L2.64195 13.1824H2.1865L2.18162 13.1779L2.27734 13.0742V13.0754H2.74522L2.7442 13.0763L2.83397 13.1815L2.64844 13.375V13.3738H1.63159V13.5703H1.62891V13.573H1.35425V13.7617H1.35156V13.7644H1.0769V14.6418H1.35156V14.6445H1.35425V14.8372H1.62891V14.8398H1.63159V15.0286H2.65135L2.65041 15.0294L2.83401 15.2323L2.74219 15.3321V15.3308H2.27455L2.27541 15.33L2.18359 15.2343V15.2278H2.6423L2.55351 15.1316H1.91249L2.18475 15.4192H2.8314L3.02159 15.3241L3.02075 15.3257L3.20377 15.4192H3.8465L4.11876 15.1316H3.4739L3.39251 15.2278H3.84474L3.84963 15.2323L3.75781 15.3321V15.3308H3.29017L3.29103 15.33L3.19726 15.2286L3.38672 15.0273V15.0286H4.49341V14.8398H4.49609V14.8372H4.77075V14.6445H4.77344V14.6418H5.05591V13.7644H4.77734V13.7617H4.77466V13.573H4.5V13.5703H4.49731V13.3738H3.38788L3.38871 13.373L3.20119 13.1778L3.30078 13.0743V13.0754H3.76463L3.76369 13.0763L3.85547 13.1757V13.1824H3.40083L3.48552 13.2708H4.12657L3.85431 12.9832H3.2077L3.02125 13.0823L3.0222 13.0805L2.83528 12.9832H2.18475L1.91249 13.2708Z" fill="black"/>
<path fill-rule="evenodd" clip-rule="evenodd" d="M1.16797 13.8672V14.5508H1.44141V14.7422H1.71875V14.9375H2.64844L3.01953 15.2305L3.39062 14.9375H4.41016V14.7461L4.6875 14.7422V14.5508H4.96875V13.8633H4.69141V13.6719H4.41406V13.4727H3.39062L3.02344 13.1797L2.65234 13.4727H1.72266V13.6719H1.44531V13.8633H1.16797V13.8672Z" fill="#00843D"/>
<path fill-rule="evenodd" clip-rule="evenodd" d="M3.0235 13.1556L3.39721 13.4538H4.43287V13.653H4.71021V13.8444H4.98755V14.5695H4.7063V14.7607L4.42896 14.7646V14.9563H3.39715L3.01953 15.2544L2.64191 14.9563H1.69995V14.7609H1.42261V14.5695H1.14917V13.8444H1.42651V13.653H1.70386V13.4538H2.64582L3.0235 13.1556ZM3.02338 13.2036L2.65235 13.4966V13.4914H1.74146V13.6906H1.46412V13.882H1.18677V14.5319H1.46021V14.7233H1.73755V14.9187H2.66328L2.66009 14.9227L3.01953 15.2065L3.39063 14.9135V14.9187H4.39136V14.7275L4.6687 14.7236V14.5319H4.94995V13.882H4.67261V13.6906H4.39526V13.4914H3.37563L3.3789 13.4873L3.02338 13.2036Z" fill="#FAAE29"/>
<path fill-rule="evenodd" clip-rule="evenodd" d="M2.46094 13.5664L1.90625 14.0547V13.5664H2.46094ZM3.57422 13.5664L4.13281 14.0547V13.5664H3.57422ZM2.46094 14.8398L1.90625 14.3516V14.8398H2.46094ZM3.57422 14.8398L4.13281 14.3516V14.8398H3.57422ZM3.75781 13.8594L3.57422 14.0547H3.94531L3.75781 13.8594ZM2.27734 13.8594L2.09375 14.0547H2.46094L2.27734 13.8594ZM2.27734 14.5469L2.09375 14.3516H2.46094L2.27734 14.5469ZM3.75781 14.5469L3.57422 14.3516H3.94531L3.75781 14.5469Z" fill="#CA3745"/>
<path fill-rule="evenodd" clip-rule="evenodd" d="M3.01953 15.0352L2.83203 14.8398H3.20313L3.01953 15.0352ZM3.01953 14.0547L2.83203 13.8594H3.20313L3.01953 14.0547ZM3.01953 13.3711L2.83203 13.5703H3.20313L3.01953 13.3711ZM3.01953 14.3516L2.83203 14.5469H3.20313L3.01953 14.3516Z" fill="#FAAE29"/>
<path fill-rule="evenodd" clip-rule="evenodd" d="M3.57422 14.0586H3.94922V14.1562H3.57812L3.57422 14.0586Z" fill="#FAAE29"/>
<path fill-rule="evenodd" clip-rule="evenodd" d="M3.57422 14.0573H3.94922V14.0586H3.95057V14.1562H3.94922V14.1576H3.54456L3.57679 14.1563L3.57422 14.0922V14.0573ZM3.94788 14.1549V14.0599H3.57562L3.57942 14.1549H3.94788Z" fill="black"/>
<path fill-rule="evenodd" clip-rule="evenodd" d="M2.1875 14.1562H2.37109V14.2539H2.1875V14.1562ZM3.66797 14.1562H3.85156V14.2539H3.66797V14.1562Z" fill="#CC0000"/>
<path fill-rule="evenodd" clip-rule="evenodd" d="M2.18884 14.1576V14.2526H2.36975V14.1576H2.18884ZM2.37109 14.1563V14.1549H2.1875V14.1563H2.18616V14.2539H2.1875V14.2552H2.37109V14.2539H2.37244V14.1563H2.37109ZM3.66931 14.1576V14.2526H3.85022V14.1576H3.66931ZM3.85156 14.1563V14.1549H3.66797V14.1563H3.66663V14.2539H3.66797V14.2552H3.85156V14.2539H3.85291V14.1563H3.85156Z" fill="black"/>
<path fill-rule="evenodd" clip-rule="evenodd" d="M2.83594 13.5703H3.20312V13.668H2.83594V13.5703ZM2.83594 13.7656H3.20312V13.8633H2.83594V13.7656Z" fill="#990000"/>
<path fill-rule="evenodd" clip-rule="evenodd" d="M2.83728 13.5717V13.6666H3.20178V13.5717H2.83728ZM3.20313 13.5703V13.569H2.83594V13.5703H2.83459V13.668H2.83594V13.6693H3.20313V13.668H3.20447V13.5703H3.20313ZM2.83728 13.767V13.8619H3.20178V13.767H2.83728ZM3.20313 13.7656V13.7643H2.83594V13.7656H2.83459V13.8633H2.83594V13.8646H3.20313V13.8633H3.20447V13.7656H3.20313Z" fill="black"/>
<path fill-rule="evenodd" clip-rule="evenodd" d="M2.74219 13.668H3.29687V13.7656H2.74219V13.668ZM2.83594 14.5508H3.20312V14.6445H2.83594V14.5508ZM2.83594 14.7422H3.20312V14.8398H2.83594V14.7422ZM2.74219 14.6445H3.29687V14.7422H2.74219V14.6445Z" fill="#990000"/>
<path fill-rule="evenodd" clip-rule="evenodd" d="M2.74353 13.6693V13.7643H3.29553V13.6693H2.74353ZM3.29688 13.668V13.6666H2.74219V13.668H2.74084V13.7656H2.74219V13.767H3.29688V13.7656H3.29822V13.668H3.29688ZM2.83728 14.5521V14.6432H3.20178V14.5521H2.83728ZM3.20313 14.5508V14.5494H2.83594V14.5508H2.83459V14.6432H2.74219V14.6445H2.74084V14.7422H2.74219V14.7435H2.83459V14.8398H2.83594V14.8412H3.20313V14.8398H3.20447V14.7435H3.29688V14.7422H3.29822V14.6445H3.29688V14.6432H3.20447V14.5508H3.20313ZM2.74353 14.6459V14.7408H3.29553V14.6459H2.74353ZM3.20178 14.7435H2.83728V14.8385H3.20178V14.7435Z" fill="black"/>
<path fill-rule="evenodd" clip-rule="evenodd" d="M3.57422 14.2539H3.94922V14.3516H3.57812L3.57422 14.2539ZM2.09375 14.0586H2.46484V14.1562H2.09375V14.0586ZM2.09375 14.25H2.46484V14.3516H2.09375V14.25ZM2 14.1562H2.18359V14.2539H2V14.1562ZM2.37109 14.1562H2.55469V14.2539H2.37109V14.1562ZM3.48438 14.1562H3.66797V14.2539H3.48438V14.1562ZM3.85547 14.1562H4.03906V14.2539H3.85547V14.1562Z" fill="#FAAE29"/>
<path fill-rule="evenodd" clip-rule="evenodd" d="M2.09509 14.0599V14.1549H2.4635V14.0599H2.09509ZM2.46484 14.0586V14.0573H2.09375V14.0586H2.09241V14.1549H2V14.1562H1.99866V14.2539H2V14.2552H2.09241V14.3516H2.09375V14.3529H2.46484V14.3516H2.46619V14.2552H2.55469V14.2539H2.55603V14.1562H2.55469V14.1549H2.46619V14.0586H2.46484ZM2.55334 14.1576H2.37244V14.2487H2.46484V14.25H2.46619V14.2526H2.55334V14.1576ZM2.4635 14.2526V14.2513H2.37244V14.2526H2.4635ZM2.37109 14.2539H2.36975V14.2513H2.18494V14.2539H2.18359V14.2552H2.09509V14.3502H2.4635V14.2552H2.37109V14.2539ZM2.09509 14.2526H2.18225V14.2513H2.09509V14.2526ZM2.09375 14.25V14.2487H2.18225V14.1576H2.00134V14.2526H2.09241V14.25H2.09375ZM2.18494 14.1576V14.2487H2.36975V14.1576H2.18494ZM3.48572 14.1576V14.2526H3.66663V14.1576H3.48572ZM3.66797 14.1562V14.1549H3.48438V14.1562H3.48303V14.2539H3.48438V14.2552H3.57422V14.2875L3.57678 14.3516L3.54455 14.3529H3.94922V14.3516H3.95056V14.2552H4.03906V14.2539H4.04041V14.1562H4.03906V14.1549H3.85547V14.1562H3.85413V14.2526H3.66931V14.1562H3.66797ZM3.57562 14.2552L3.57942 14.3502H3.94788V14.2552H3.57562ZM3.85681 14.2526H4.03772V14.1576H3.85681V14.2526Z" fill="black"/>
<path d="M2.79297 14.7148C2.80469 14.7148 2.81641 14.7031 2.81641 14.6914C2.81641 14.6758 2.80469 14.6641 2.79297 14.6641C2.77734 14.6641 2.76953 14.6758 2.76953 14.6914C2.76953 14.7031 2.77734 14.7148 2.79297 14.7148Z" fill="white"/>
<path d="M3.01953 14.7148C3.03516 14.7148 3.04297 14.7031 3.04297 14.6914C3.04297 14.6758 3.03516 14.6641 3.01953 14.6641C3.00781 14.6641 2.99609 14.6758 2.99609 14.6914C2.99609 14.7031 3.00781 14.7148 3.01953 14.7148Z" fill="white"/>
<path d="M3.25391 14.7148C3.26562 14.7148 3.27734 14.7031 3.27734 14.6914C3.27734 14.6758 3.26562 14.6641 3.25391 14.6641C3.23828 14.6641 3.23047 14.6758 3.23047 14.6914C3.23047 14.7031 3.23828 14.7148 3.25391 14.7148Z" fill="white"/>
<path d="M2.88281 14.6211C2.89453 14.6211 2.90625 14.6094 2.90625 14.5977C2.90625 14.582 2.89453 14.5703 2.88281 14.5703C2.87109 14.5703 2.85938 14.582 2.85938 14.5977C2.85938 14.6094 2.87109 14.6211 2.88281 14.6211Z" fill="white"/>
<path d="M3.15625 14.6211C3.17188 14.6211 3.17969 14.6094 3.17969 14.5977C3.17969 14.582 3.17188 14.5703 3.15625 14.5703C3.14453 14.5703 3.13281 14.582 3.13281 14.5977C3.13281 14.6094 3.14453 14.6211 3.15625 14.6211Z" fill="white"/>
<path d="M2.87891 14.8125C2.89453 14.8125 2.90234 14.8008 2.90234 14.7891C2.90234 14.7734 2.89453 14.7617 2.87891 14.7617C2.86719 14.7617 2.85547 14.7734 2.85547 14.7891C2.85547 14.8008 2.86719 14.8125 2.87891 14.8125Z" fill="white"/>
<path d="M3.15625 14.8164C3.17188 14.8164 3.17969 14.8047 3.17969 14.793C3.17969 14.7773 3.17188 14.7656 3.15625 14.7656C3.14453 14.7656 3.13281 14.7773 3.13281 14.793C3.13281 14.8047 3.14453 14.8164 3.15625 14.8164Z" fill="white"/>
<path d="M3.52734 14.2266C3.53906 14.2266 3.55078 14.2148 3.55078 14.1992C3.55078 14.1875 3.53906 14.1758 3.52734 14.1758C3.51172 14.1758 3.50391 14.1875 3.50391 14.1992C3.50391 14.2148 3.51172 14.2266 3.52734 14.2266Z" fill="white"/>
<path d="M3.75781 14.2266C3.77344 14.2266 3.78125 14.2148 3.78125 14.1992C3.78125 14.1875 3.77344 14.1758 3.75781 14.1758C3.74609 14.1758 3.73438 14.1875 3.73438 14.1992C3.73438 14.2148 3.74609 14.2266 3.75781 14.2266Z" fill="white"/>
<path d="M3.99219 14.2266C4.00391 14.2266 4.01562 14.2148 4.01562 14.1992C4.01562 14.1875 4.00391 14.1758 3.99219 14.1758C3.97656 14.1758 3.96875 14.1875 3.96875 14.1992C3.96875 14.2148 3.97656 14.2266 3.99219 14.2266Z" fill="white"/>
<path d="M3.62109 14.1289C3.63281 14.1289 3.64453 14.1172 3.64453 14.1016C3.64453 14.0898 3.63281 14.0781 3.62109 14.0781C3.60938 14.0781 3.59766 14.0898 3.59766 14.1016C3.59766 14.1172 3.60938 14.1289 3.62109 14.1289Z" fill="white"/>
<path d="M3.89453 14.1289C3.91016 14.1289 3.91797 14.1172 3.91797 14.1016C3.91797 14.0898 3.91016 14.0781 3.89453 14.0781C3.88281 14.0781 3.87109 14.0898 3.87109 14.1016C3.87109 14.1172 3.88281 14.1289 3.89453 14.1289Z" fill="white"/>
<path d="M3.61719 14.3203C3.63281 14.3203 3.64062 14.3086 3.64062 14.293C3.64062 14.2813 3.63281 14.2695 3.61719 14.2695C3.60547 14.2695 3.59375 14.2813 3.59375 14.293C3.59375 14.3086 3.60547 14.3203 3.61719 14.3203Z" fill="white"/>
<path d="M3.89453 14.3242C3.91016 14.3242 3.91797 14.3125 3.91797 14.2969C3.91797 14.2852 3.91016 14.2734 3.89453 14.2734C3.88281 14.2734 3.87109 14.2852 3.87109 14.2969C3.87109 14.3125 3.88281 14.3242 3.89453 14.3242Z" fill="white"/>
<path d="M2.78906 13.7422C2.80078 13.7422 2.8125 13.7305 2.8125 13.7148C2.8125 13.7031 2.80078 13.6914 2.78906 13.6914C2.77734 13.6914 2.76562 13.7031 2.76562 13.7148C2.76562 13.7305 2.77734 13.7422 2.78906 13.7422Z" fill="white"/>
<path d="M3.01953 13.7422C3.03516 13.7422 3.04297 13.7305 3.04297 13.7148C3.04297 13.7031 3.03516 13.6914 3.01953 13.6914C3.00781 13.6914 2.99609 13.7031 2.99609 13.7148C2.99609 13.7305 3.00781 13.7422 3.01953 13.7422Z" fill="white"/>
<path d="M3.25391 13.7344C3.26562 13.7344 3.27734 13.7266 3.27734 13.7109C3.27734 13.6992 3.26562 13.6875 3.25391 13.6875C3.23828 13.6875 3.23047 13.6992 3.23047 13.7109C3.23047 13.7266 3.23828 13.7344 3.25391 13.7344Z" fill="white"/>
<path d="M2.87891 13.6445C2.89453 13.6445 2.90234 13.6328 2.90234 13.6172C2.90234 13.6055 2.89453 13.5938 2.87891 13.5938C2.86719 13.5938 2.85547 13.6055 2.85547 13.6172C2.85547 13.6328 2.86719 13.6445 2.87891 13.6445Z" fill="white"/>
<path d="M3.15625 13.6445C3.17188 13.6445 3.17969 13.6328 3.17969 13.6172C3.17969 13.6055 3.17188 13.5938 3.15625 13.5938C3.14453 13.5938 3.13281 13.6055 3.13281 13.6172C3.13281 13.6328 3.14453 13.6445 3.15625 13.6445Z" fill="white"/>
<path d="M2.87891 13.832C2.89453 13.832 2.90234 13.8242 2.90234 13.8086C2.90234 13.7969 2.89453 13.7852 2.87891 13.7852C2.86719 13.7852 2.85547 13.7969 2.85547 13.8086C2.85547 13.8242 2.86719 13.832 2.87891 13.832Z" fill="white"/>
<path d="M3.15625 13.8398C3.17188 13.8398 3.17969 13.8281 3.17969 13.8125C3.17969 13.8008 3.17188 13.7891 3.15625 13.7891C3.14453 13.7891 3.13281 13.8008 3.13281 13.8125C3.13281 13.8281 3.14453 13.8398 3.15625 13.8398Z" fill="white"/>
<path d="M2.04687 14.2344C2.05859 14.2344 2.07031 14.2227 2.07031 14.2109C2.07031 14.1953 2.05859 14.1836 2.04687 14.1836C2.03516 14.1836 2.02344 14.1953 2.02344 14.2109C2.02344 14.2227 2.03516 14.2344 2.04687 14.2344Z" fill="white"/>
<path d="M2.27734 14.2344C2.29297 14.2344 2.30078 14.2227 2.30078 14.2109C2.30078 14.1953 2.29297 14.1836 2.27734 14.1836C2.26563 14.1836 2.25391 14.1953 2.25391 14.2109C2.25391 14.2227 2.26563 14.2344 2.27734 14.2344Z" fill="white"/>
<path d="M2.51172 14.2305C2.52344 14.2305 2.53516 14.2188 2.53516 14.2031C2.53516 14.1914 2.52344 14.1797 2.51172 14.1797C2.49609 14.1797 2.48828 14.1914 2.48828 14.2031C2.48828 14.2188 2.49609 14.2305 2.51172 14.2305Z" fill="white"/>
<path d="M2.14062 14.1367C2.15625 14.1367 2.16406 14.125 2.16406 14.1133C2.16406 14.0977 2.15625 14.0859 2.14062 14.0859C2.12891 14.0859 2.11719 14.0977 2.11719 14.1133C2.11719 14.125 2.12891 14.1367 2.14062 14.1367Z" fill="white"/>
<path d="M2.41406 14.1367C2.42969 14.1367 2.4375 14.125 2.4375 14.1133C2.4375 14.0977 2.42969 14.0859 2.41406 14.0859C2.40234 14.0859 2.39062 14.0977 2.39062 14.1133C2.39062 14.125 2.40234 14.1367 2.41406 14.1367Z" fill="white"/>
<path d="M2.13672 14.3281C2.15234 14.3281 2.16016 14.3164 2.16016 14.3047C2.16016 14.2891 2.15234 14.2773 2.13672 14.2773C2.125 14.2773 2.11328 14.2891 2.11328 14.3047C2.11328 14.3164 2.125 14.3281 2.13672 14.3281Z" fill="white"/>
<path d="M2.41406 14.332C2.42969 14.332 2.4375 14.3203 2.4375 14.3086C2.4375 14.293 2.42969 14.2812 2.41406 14.2812C2.40234 14.2812 2.39062 14.293 2.39062 14.3086C2.39062 14.3203 2.40234 14.332 2.41406 14.332Z" fill="white"/>
<path fill-rule="evenodd" clip-rule="evenodd" d="M3.38281 12.0742L3.54297 11.9961L3.70313 12.0742H3.38281ZM2.90625 12.0742L3.0625 11.9961L3.22656 12.0742H2.90625ZM2.42578 12.0742L2.58594 11.9961L2.74609 12.0742H2.42578ZM3.38281 10.3516L3.54297 10.4297L3.70313 10.3555H3.38281V10.3516ZM2.90625 10.3516L3.0625 10.4297L3.22656 10.3555H2.90625V10.3516ZM2.42578 10.3516L2.58594 10.4297L2.74609 10.3555H2.42578V10.3516Z" fill="white"/>
<path fill-rule="evenodd" clip-rule="evenodd" d="M3.25 12.2969L3.0625 12.4492L2.87891 12.2969L2.69141 12.4492L2.50391 12.2969V12.375L2.62891 12.4453L2.56641 12.5234V12.5938H2.62891L2.69141 12.5234L2.75391 12.5938H2.81641V12.5234L2.75391 12.4492L2.87891 12.375L3.00391 12.4453L2.94141 12.5234V12.5938H3.00391L3.0625 12.5234L3.125 12.5938H3.1875V12.5234L3.125 12.4492L3.25 12.375L3.37109 12.4453L3.3125 12.5234V12.5938H3.37109L3.4375 12.5234L3.5 12.5938H3.55859V12.5234L3.5 12.4492L3.62109 12.375V12.293L3.4375 12.4453L3.25 12.293V12.2969ZM3.25 10.1328L3.0625 9.98047L2.87891 10.1328L2.69141 9.98047L2.50391 10.1328V10.0586L2.62891 9.98047L2.56641 9.91016V9.83203H2.62891L2.69141 9.90625L2.75391 9.83203H2.81641V9.90625L2.75391 9.98438L2.87891 10.0547L3.00391 9.98438L2.94141 9.90625V9.83203H3.00391L3.0625 9.90625L3.125 9.83203H3.1875V9.90625L3.125 9.98438L3.25 10.0547L3.37109 9.98438L3.3125 9.90625V9.83203H3.37109L3.4375 9.90625L3.5 9.83203H3.55859V9.90625L3.5 9.98438L3.62109 10.0547V10.1328L3.4375 9.98047L3.25 10.1328ZM4.65625 11.375L4.85938 11.2148L4.66016 11.0508L4.85938 10.8906L4.66016 10.7266H4.75781L4.85938 10.8359L4.95703 10.7813H5.05859V10.8359L4.95703 10.8906L5.05859 10.9414V11H4.95703L4.85938 10.9414L4.75781 11.0508L4.85938 11.1562L4.95703 11.1094H5.05859V11.1602L4.95703 11.2148L5.05859 11.2656V11.3242H4.95703L4.85938 11.2656L4.75781 11.375L4.85938 11.4805L4.95703 11.4297H5.05859V11.4844L4.95703 11.5391L5.05859 11.5938V11.6445H4.95703L4.85938 11.5938L4.75781 11.6992H4.66016L4.85938 11.5391L4.66016 11.375H4.65625ZM1.47266 11.375L1.26953 11.2148L1.47266 11.0508L1.26953 10.8906L1.47266 10.7266H1.36719L1.26953 10.8359L1.17188 10.7813H1.06641V10.8359L1.17188 10.8867L1.07031 10.9375V10.9961H1.17188L1.26953 10.9375L1.36719 11.0469L1.26953 11.1523L1.17188 11.1055H1.06641V11.1562L1.16797 11.2109L1.06641 11.2617V11.3203H1.17188L1.26953 11.2617L1.36719 11.3711L1.26953 11.4805L1.17188 11.4297H1.06641V11.4805L1.16797 11.5352L1.06641 11.5898V11.6406H1.17188L1.26953 11.5898L1.36719 11.6953H1.47266L1.26953 11.5352L1.47266 11.3711V11.375Z" fill="#00843D"/>
<path fill-rule="evenodd" clip-rule="evenodd" d="M4.73437 11.9258H4.81641V12H4.73437V11.9258ZM4.65234 12H4.73437V12.0742H4.66016L4.65234 12ZM4.25781 12.375H4.33984V12.4492H4.25781V12.375ZM4.33984 12.2969H4.41406V12.375H4.33984V12.2969ZM1.70703 12.2969H1.78906V12.375H1.70312L1.70703 12.2969ZM1.30859 11.9258H1.38672V12H1.30859V11.9258ZM1.38672 12H1.46875V12.0742H1.38672V12ZM1.38672 10.3516H1.46875V10.4297H1.38672V10.3516ZM1.30859 10.4297H1.38672V10.5039H1.30859V10.4297ZM1.78906 9.98047H1.86328V10.0586H1.79297L1.78906 9.98047ZM1.70703 10.0586H1.78906V10.1328H1.70312L1.70703 10.0586ZM4.25781 9.98047H4.33984V10.0586H4.25781V9.98047ZM4.33984 10.0586H4.41406V10.1328H4.33984V10.0586ZM4.65234 10.3516H4.73437V10.4297H4.66016L4.65234 10.3516ZM4.73437 10.4336H4.81641V10.5039H4.73437V10.4336ZM1.79297 12.375H1.87109V12.4492H1.79297V12.375Z" fill="#00843D"/>
<path fill-rule="evenodd" clip-rule="evenodd" d="M1.70703 9.93433V10.0521H1.78907V9.97398H1.86328V9.98052H1.86982V10.0586H1.86328V10.0652H1.7956V10.1329H1.78907V10.1374L1.6966 10.1325L1.70015 10.0652H1.6623L1.70025 10.0633L1.70703 9.93433ZM1.71323 10.0652L1.71001 10.1263H1.78253V10.0652H1.71323ZM1.78676 10.0652L1.78907 10.1114V10.0652H1.78676ZM1.78907 10.1374V10.1394H1.82727L1.78907 10.1374ZM1.85675 10.0521V9.98705H1.79593L1.79919 10.0521H1.85675ZM4.25782 9.97398H4.33985V9.98052H4.34638V10.0521H4.41407V10.0586H4.4206V10.1329H4.41407V10.1394H4.33985V10.1329H4.33331V10.0652H4.25782V10.0586H4.25128V9.98052H4.25782V9.97398ZM4.26435 9.98705V10.0521H4.33331V9.98705H4.26435ZM4.34638 10.0652V10.1263H4.40753V10.0652H4.34638ZM1.38672 10.3451H1.46875V10.3516H1.47529V10.4297H1.46875V10.4363H1.39326V10.504H1.38672V10.5105H1.3086V10.504H1.30206V10.4297H1.3086V10.4232H1.38019V10.3516H1.38672V10.3451ZM1.39326 10.3581V10.4232H1.46222V10.3581H1.39326ZM1.38019 10.4363H1.31513V10.4974H1.38019V10.4363ZM4.65235 10.3451H4.73438V10.3516H4.74091V10.4271H4.81641V10.4336H4.82294V10.504H4.81641V10.5105H4.73438V10.504H4.72784V10.4363H4.59482L4.65366 10.4304L4.65235 10.4173V10.3451ZM4.74091 10.4402V10.4974H4.80988V10.4402H4.74091ZM4.72784 10.4232V10.3581H4.65957L4.66607 10.4232H4.72784ZM1.3086 11.9193H1.38672V11.9258H1.39326V11.9935H1.46875V12H1.47529V12.0743H1.46875V12.0808H1.38672V12.0743H1.38019V12.0066H1.3086V12H1.30206V11.9258H1.3086V11.9193ZM1.31513 11.9324V11.9935H1.38019V11.9324H1.31513ZM1.39326 12.0066V12.0677H1.46222V12.0066H1.39326ZM4.73438 11.9193H4.81641V11.9258H4.82294V12H4.81641V12.0066H4.74091V12.0743H4.73438V12.0808H4.59809L4.65366 12.075L4.65235 12.0625V11.9935H4.72784V11.9258H4.73438V11.9193ZM4.74091 11.9324V11.9935H4.80988V11.9324H4.74091ZM4.72784 12.0066H4.65961L4.66604 12.0677H4.72784V12.0066ZM1.70703 12.1661V12.2904H1.78907V12.2969H1.7956V12.3685H1.8711V12.375H1.87763V12.4493H1.8711V12.4558H1.79297V12.4493H1.78644V12.3792L1.6966 12.3747L1.70703 12.1661ZM1.71 12.3685H1.78253V12.3035H1.71325L1.71 12.3685ZM1.78907 12.3793V12.3816H1.79297V12.3795L1.78907 12.3793ZM1.79951 12.3799V12.4427H1.86456V12.3816H1.83381L1.79951 12.3799ZM4.33985 12.2904H4.41407V12.2969H4.4206V12.375H4.41407V12.3816H4.34638V12.4493H4.33985V12.4558H4.25782V12.4493H4.25128V12.375H4.25782V12.3685H4.33331V12.2969H4.33985V12.2904ZM4.34638 12.3035V12.3685H4.40753V12.3035H4.34638ZM4.33331 12.3816H4.26435V12.4427H4.33331V12.3816Z" fill="black"/>
<path fill-rule="evenodd" clip-rule="evenodd" d="M2.82031 11.2148H2.58594V11.0664H2.74219V10.9297H2.89844V10.8008H3.05469V10.9609C2.92578 10.9609 2.82031 11.0664 2.82031 11.2148Z" fill="white"/>
<path fill-rule="evenodd" clip-rule="evenodd" d="M3.29297 11.2148H3.52734V11.0664H3.36719V10.9297H3.21094V10.8008H3.05469V10.9609C3.1875 10.9609 3.29297 11.0664 3.29297 11.2148Z" fill="#FAAE29"/>
<path fill-rule="evenodd" clip-rule="evenodd" d="M3.29297 11.2148H3.52734V11.3594H3.36719V11.5H3.21094V11.625H3.05469V11.4688C3.1875 11.4688 3.29297 11.3594 3.29297 11.2148Z" fill="white"/>
<path fill-rule="evenodd" clip-rule="evenodd" d="M2.82031 11.2148H2.58594V11.3594H2.74219V11.5H2.89844V11.625H3.05469V11.4688C2.92578 11.4688 2.82031 11.3594 2.82031 11.2148Z" fill="#FAAE29"/>
<path fill-rule="evenodd" clip-rule="evenodd" d="M3.29297 11.2148H3.05469V10.9609C3.1875 10.9609 3.29297 11.0781 3.29297 11.2148Z" fill="#00843D"/>
<path fill-rule="evenodd" clip-rule="evenodd" d="M3.29297 11.2148H3.05469V11.4688C3.1875 11.4688 3.29297 11.3555 3.29297 11.2148Z" fill="#CA3745"/>
<path fill-rule="evenodd" clip-rule="evenodd" d="M2.82031 11.2148H3.05469V11.4688C2.92578 11.4688 2.82031 11.3555 2.82031 11.2148Z" fill="#00843D"/>
<path fill-rule="evenodd" clip-rule="evenodd" d="M2.82031 11.2148H3.05469V10.9609C2.92578 10.9609 2.82031 11.0781 2.82031 11.2148Z" fill="#CA3745"/>
<path fill-rule="evenodd" clip-rule="evenodd" d="M3.30078 12.1484L3.0625 11.9961L2.82422 12.1484L2.58594 11.9961L2.34766 12.1484V12.0742L2.50391 11.9961L2.42578 11.9219V11.8516H2.50391L2.58594 11.9219L2.66406 11.8516H2.74609V11.9219L2.66406 11.9961L2.82422 12.0742L2.98438 11.9961L2.90625 11.9219V11.8516H2.98438L3.0625 11.9219L3.14453 11.8516H3.22656V11.9219L3.14453 11.9961L3.30078 12.0742L3.46484 11.9961L3.38281 11.9219V11.8516H3.46484L3.54297 11.9219L3.62109 11.8516H3.70313V11.9219L3.62109 11.9961L3.78125 12.0742V12.1445L3.54297 11.9961L3.30078 12.1484ZM3.30078 10.2813L3.0625 10.4297L2.82422 10.2813L2.58594 10.4297L2.34766 10.2813V10.3516L2.50391 10.4297L2.42578 10.5039V10.582H2.50391L2.58594 10.5039L2.66406 10.582H2.74609V10.5L2.66406 10.4297L2.82422 10.3516L2.98438 10.4258L2.90625 10.5V10.5781H2.98438L3.0625 10.5L3.14453 10.5781H3.22656V10.5L3.14453 10.4297L3.30078 10.3516L3.46484 10.4258L3.38281 10.5V10.5781H3.46484L3.54297 10.5L3.62109 10.5781H3.70313V10.5L3.62109 10.4297L3.78125 10.3516V10.2773L3.54297 10.4258L3.30078 10.2773V10.2813ZM4.17969 11.3984L4.0625 11.2148L4.17969 11.0273L4.0625 10.8398L4.17969 10.6563H4.12109L4.0625 10.7773L4.00391 10.7148H3.94141V10.7773L4.00391 10.8398L3.94141 10.9063V10.9648H4.00391L4.0625 10.9063L4.12109 11.0273L4.0625 11.1484L4.00391 11.0898H3.94141V11.1484L4.00391 11.2148L3.94141 11.2773V11.3398H4.00391L4.0625 11.2773L4.12109 11.3984L4.0625 11.5273L4.00391 11.4648H3.94141V11.5273L4.00391 11.5859L3.94141 11.6484V11.7109H4.00391L4.0625 11.6484L4.12109 11.7773H4.17969L4.0625 11.5859L4.17969 11.3984Z" fill="#00843D"/>
<path fill-rule="evenodd" clip-rule="evenodd" d="M2.34766 10.3594L2.03125 10.6523V11.7734L2.34766 12.0742H3.78906L4.10156 11.7773V10.6562L3.78125 10.3594H2.34766ZM2.26563 10.1289L1.46875 10.8789V11.5547L2.26953 12.2969H3.86328L4.66016 11.5508V10.875L3.86328 10.1289H2.26563Z" fill="#00843D"/>
<path fill-rule="evenodd" clip-rule="evenodd" d="M2.26562 10.1169V10.1202H3.87144L3.86923 10.1225L4.6729 10.875H4.66887V11.5601L4.66611 11.5571L3.86328 12.3088V12.3056H2.26146L2.26361 12.3033L1.45593 11.5547H1.46004V10.8697L1.46278 10.8726L2.26562 10.1169ZM2.26908 10.1376L1.47746 10.8827V11.5509L2.27295 12.2882H3.85984L4.65144 11.547V10.8788L3.85984 10.1376H2.26908ZM2.34765 10.3475V10.3507H3.78932L3.78717 10.353L4.11438 10.6563H4.11027V11.7865L4.10756 11.7837L3.78906 12.0862V12.0829H2.33937L2.34165 12.0805L2.0186 11.7734H2.02254V10.6429L2.02533 10.646L2.34765 10.3475ZM2.35107 10.3681L2.03996 10.6562V11.7697L2.35113 12.0655H3.78558L4.09285 11.7736V10.6601L3.77783 10.3681H2.35107Z" fill="black"/>
<path fill-rule="evenodd" clip-rule="evenodd" d="M2.67969 12.1484L2.80469 12.3008L2.93359 12.1484H2.67578H2.67969Z" fill="#FAAE29"/>
<path fill-rule="evenodd" clip-rule="evenodd" d="M2.92795 12.1437L2.93724 12.1515L2.82513 12.284L2.801 12.3038L2.67743 12.1532H2.67578V12.1437H2.92795ZM2.68978 12.1532H2.92331L2.80474 12.2933L2.68978 12.1532Z" fill="black"/>
<path fill-rule="evenodd" clip-rule="evenodd" d="M2.67969 10.2812L2.80469 10.1289L2.93359 10.2812H2.67578H2.67969Z" fill="#FAAE29"/>
<path fill-rule="evenodd" clip-rule="evenodd" d="M2.7845 10.146L2.67743 10.2765H2.67578V10.2861H2.67969V10.2888L2.68194 10.2861H2.93359V10.2739L2.80833 10.1259L2.7845 10.146ZM2.80474 10.1364L2.68978 10.2765H2.92331L2.80474 10.1364Z" fill="black"/>
<path fill-rule="evenodd" clip-rule="evenodd" d="M3.19141 10.2812L3.31641 10.1289L3.44922 10.2812H3.1875H3.19141Z" fill="#FAAE29"/>
<path fill-rule="evenodd" clip-rule="evenodd" d="M3.29473 10.1478L3.18915 10.2764H3.1875V10.286H3.19141V10.2887L3.19366 10.286H3.44922V10.274L3.32 10.1257L3.29473 10.1478ZM3.31652 10.1363L3.20149 10.2764H3.43873L3.31652 10.1363Z" fill="black"/>
<path fill-rule="evenodd" clip-rule="evenodd" d="M3.19141 12.1484L3.31641 12.3008L3.44922 12.1484H3.1875H3.19141Z" fill="#FAAE29"/>
<path fill-rule="evenodd" clip-rule="evenodd" d="M3.44375 12.1437L3.45282 12.1516L3.33864 12.2825L3.31272 12.3038L3.18915 12.1532H3.1875V12.1437H3.44375ZM3.20149 12.1532H3.43873L3.31652 12.2934L3.20149 12.1532Z" fill="black"/>
<path fill-rule="evenodd" clip-rule="evenodd" d="M2.42578 10.2812L2.55078 10.1289L2.67969 10.2812H2.42188H2.42578Z" fill="#CA3745"/>
<path fill-rule="evenodd" clip-rule="evenodd" d="M2.53059 10.146L2.42352 10.2765H2.42188V10.2861H2.42578V10.2888L2.42804 10.2861H2.67969V10.2739L2.55442 10.1259L2.53059 10.146ZM2.55084 10.1364L2.43587 10.2765H2.6694L2.55084 10.1364Z" fill="black"/>
<path fill-rule="evenodd" clip-rule="evenodd" d="M2.93359 10.2812L3.0625 10.1289L3.19141 10.2812H2.93359Z" fill="#CA3745"/>
<path fill-rule="evenodd" clip-rule="evenodd" d="M2.92996 10.2782L3.0405 10.1476L3.06615 10.1259L3.19142 10.2739V10.2861H2.93924L2.92996 10.2782ZM3.18113 10.2765L3.06251 10.1363L2.94389 10.2765H3.18113Z" fill="black"/>
<path fill-rule="evenodd" clip-rule="evenodd" d="M3.44531 10.2812L3.57031 10.1289L3.69922 10.2812H3.44141H3.44531Z" fill="#CA3745"/>
<path fill-rule="evenodd" clip-rule="evenodd" d="M3.55012 10.146L3.44306 10.2765H3.44141V10.2861H3.44531V10.2888L3.44757 10.2861H3.69922V10.2739L3.57396 10.1259L3.55012 10.146ZM3.57037 10.1364L3.4554 10.2765H3.68893L3.57037 10.1364Z" fill="black"/>
<path fill-rule="evenodd" clip-rule="evenodd" d="M2.10938 11.9258L2.34766 12.1445H2.10938V11.9258Z" fill="#CA3745"/>
<path fill-rule="evenodd" clip-rule="evenodd" d="M2.09958 11.9034L2.37283 12.1543H2.10938V12.1445H2.09958V11.9034ZM2.11918 12.1347H2.32249L2.11918 11.948V12.1347Z" fill="black"/>
<path fill-rule="evenodd" clip-rule="evenodd" d="M1.94531 11.3984L2.06641 11.2148L1.94531 11.0273L2.06641 10.8398L1.94531 10.6562H2.00391L2.06641 10.7773L2.125 10.7148H2.18359V10.7773L2.125 10.8398L2.18359 10.9062V10.9648H2.125L2.06641 10.9062L2.00391 11.0273L2.06641 11.1484L2.125 11.0898H2.18359V11.1484L2.125 11.2148L2.18359 11.2773V11.3398H2.125L2.06641 11.2773L2.00391 11.3984L2.06641 11.5273L2.125 11.4648H2.18359V11.5273L2.125 11.5859L2.18359 11.6484V11.7109H2.125L2.06641 11.6484L2.00391 11.7773H1.94531L2.06641 11.5859L1.94531 11.3984Z" fill="#00843D"/>
<path fill-rule="evenodd" clip-rule="evenodd" d="M4.25781 11.0117H4.57813L4.66016 11.082L4.57813 11.1484H4.26172V11.0078L4.25781 11.0117Z" fill="#CA3745"/>
<path fill-rule="evenodd" clip-rule="evenodd" d="M4.25391 11.0078H4.25781V11.0055H4.58344L4.58216 11.007L4.63857 11.0553L4.66406 11.0868L4.57812 11.1564V11.1546H4.26172V11.1484H4.25552V11.0094L4.25391 11.0078ZM4.26792 11.1422H4.57593L4.65047 11.0819L4.57583 11.0179H4.26792V11.1422Z" fill="black"/>
<path fill-rule="evenodd" clip-rule="evenodd" d="M2.10938 10.5039L1.94531 10.6562V11.7734L2.10938 11.9258H1.87109V10.5039H2.10938Z" fill="#CA3745"/>
<path fill-rule="evenodd" clip-rule="evenodd" d="M1.87982 10.5127V11.9171H2.0872L1.93252 11.7735H1.93662V10.6469L1.9394 10.6499L2.0872 10.5127H1.87982ZM1.87111 11.9258H1.8624V10.504H1.87111V10.4952H2.13157L1.95404 10.6601V11.7697L2.13157 11.9345H1.87111V11.9258Z" fill="black"/>
<path fill-rule="evenodd" clip-rule="evenodd" d="M2.42578 12.1484L2.55078 12.3008L2.67969 12.1484H2.42188H2.42578Z" fill="#CA3745"/>
<path fill-rule="evenodd" clip-rule="evenodd" d="M2.67405 12.1437L2.68333 12.1515L2.57123 12.284L2.54709 12.3038L2.42352 12.1532H2.42188V12.1437H2.67405ZM2.43587 12.1532H2.6694L2.55084 12.2933L2.43587 12.1532Z" fill="black"/>
<path fill-rule="evenodd" clip-rule="evenodd" d="M2.93359 12.1484L3.0625 12.3008L3.19141 12.1484H2.93359Z" fill="#CA3745"/>
<path fill-rule="evenodd" clip-rule="evenodd" d="M2.93359 12.1437H3.18577L3.19505 12.1515L3.08451 12.2822L3.05886 12.3039L2.93359 12.1558V12.1437ZM2.94388 12.1532L3.0625 12.2934L3.18112 12.1532H2.94388Z" fill="black"/>
<path fill-rule="evenodd" clip-rule="evenodd" d="M3.44531 12.1484L3.57031 12.3008L3.69922 12.1484H3.44141H3.44531Z" fill="#CA3745"/>
<path fill-rule="evenodd" clip-rule="evenodd" d="M3.69358 12.1437L3.70286 12.1515L3.59076 12.284L3.56662 12.3038L3.44306 12.1532H3.44141V12.1437H3.69358ZM3.4554 12.1532H3.68893L3.57037 12.2933L3.4554 12.1532Z" fill="black"/>
<path fill-rule="evenodd" clip-rule="evenodd" d="M4.01953 10.5039L4.17969 10.6562V11.7734L4.01953 11.9258H4.25781V10.5039H4.01953Z" fill="#CA3745"/>
<path fill-rule="evenodd" clip-rule="evenodd" d="M3.99774 10.4952H4.25782V10.504H4.26653V11.9258H4.25782V11.9345H3.99774L4.17098 11.7697V10.66L3.99774 10.4952ZM4.24911 11.9171V10.5127H4.04134L4.19234 10.6563H4.18841V11.7826L4.1857 11.7798L4.04134 11.9171H4.24911Z" fill="black"/>
<path fill-rule="evenodd" clip-rule="evenodd" d="M4.01953 11.9258L3.78516 12.1445H4.01953V11.9258Z" fill="#CA3745"/>
<path fill-rule="evenodd" clip-rule="evenodd" d="M4.02932 11.9032V12.1445H4.01952V12.1543H3.76028L4.02932 11.9032ZM4.00972 12.1347V11.9483L3.81001 12.1347H4.00972Z" fill="black"/>
<path fill-rule="evenodd" clip-rule="evenodd" d="M4.01953 10.5039L3.78516 10.2812H4.01953V10.5039Z" fill="#CA3745"/>
<path fill-rule="evenodd" clip-rule="evenodd" d="M3.76062 10.2715H4.01954V10.2813H4.02934V10.5268L3.76062 10.2715ZM4.00974 10.2911H3.80971L4.00974 10.4811V10.2911Z" fill="black"/>
<path fill-rule="evenodd" clip-rule="evenodd" d="M2.10938 10.5039L2.34766 10.2812H2.10938V10.5039Z" fill="#CA3745"/>
<path fill-rule="evenodd" clip-rule="evenodd" d="M2.10938 10.2715H2.3725L2.09958 10.5265V10.2813H2.10938V10.2715ZM2.11918 10.2911V10.4814L2.32282 10.2911H2.11918Z" fill="black"/>
<path fill-rule="evenodd" clip-rule="evenodd" d="M2.34766 10.3594L2.03125 10.6523V11.7734L2.34766 12.0742H3.78906L4.10156 11.7773V10.6562L3.78125 10.3594H2.34766ZM2.34766 10.2812L1.95312 10.6523V11.7734L2.34766 12.1484H3.78906L4.18359 11.7734V10.6523L3.78125 10.2812H2.34766Z" fill="#00843D"/>
<path fill-rule="evenodd" clip-rule="evenodd" d="M2.34767 10.2693V10.2725H3.7893L3.78717 10.2748L4.19645 10.6523H4.19232V11.7826L4.18961 11.7797L3.78907 12.1605V12.1571H2.33939L2.34167 12.1547L1.94049 11.7734H1.94442V10.6431L1.94717 10.646L2.34767 10.2693ZM2.35112 10.29L1.96185 10.6561V11.7697L2.35115 12.1397H3.78559L4.17489 11.7697V10.6562L3.77786 10.29H2.35112ZM2.34767 10.3475V10.3507H3.78934L3.78718 10.353L4.11439 10.6562H4.11029V11.7865L4.10757 11.7837L3.78907 12.0862V12.0829H2.33939L2.34166 12.0805L2.01862 11.7734H2.02255V10.6429L2.02534 10.6459L2.34767 10.3475ZM2.35108 10.3681L2.03997 10.6561V11.7697L2.35115 12.0655H3.78559L4.09286 11.7736V10.6601L3.77784 10.3681H2.35108Z" fill="black"/>
<path fill-rule="evenodd" clip-rule="evenodd" d="M4.25781 11.1445H4.57813L4.66016 11.2148L4.57813 11.2812H4.26172V11.1406L4.25781 11.1445Z" fill="#FAAE29"/>
<path fill-rule="evenodd" clip-rule="evenodd" d="M4.25391 11.1406H4.25781V11.1383H4.58344L4.58216 11.1398L4.63857 11.1881L4.66406 11.2196L4.57813 11.2892V11.2874H4.26172V11.2812H4.25552V11.1422L4.25391 11.1406ZM4.26792 11.275H4.57593L4.65047 11.2147L4.57583 11.1507H4.26792V11.275Z" fill="black"/>
<path fill-rule="evenodd" clip-rule="evenodd" d="M4.25781 11.2773H4.57813L4.66016 11.3477L4.57813 11.4141H4.26172V11.2734L4.25781 11.2773Z" fill="#CA3745"/>
<path fill-rule="evenodd" clip-rule="evenodd" d="M4.25391 11.2734H4.25781V11.2711H4.58344L4.58216 11.2726L4.63857 11.321L4.66406 11.3524L4.57813 11.422V11.4202H4.26172V11.414H4.25552V11.275L4.25391 11.2734ZM4.26792 11.4078H4.57593L4.65047 11.3475L4.57583 11.2835H4.26792V11.4078Z" fill="black"/>
<path fill-rule="evenodd" clip-rule="evenodd" d="M4.25781 11.4141H4.57813L4.66016 11.4805L4.57813 11.5508H4.26172V11.4102L4.25781 11.4141Z" fill="#FAAE29"/>
<path fill-rule="evenodd" clip-rule="evenodd" d="M4.25391 11.4101H4.25781V11.4078H4.58314L4.58203 11.4092L4.63783 11.4544L4.66419 11.4851L4.57813 11.5589V11.557H4.26172V11.5508H4.25552V11.4117L4.25391 11.4101ZM4.26792 11.5446H4.57583L4.65047 11.4806L4.57593 11.4202H4.26792V11.5446Z" fill="black"/>
<path fill-rule="evenodd" clip-rule="evenodd" d="M4.25781 10.875H4.57813L4.66016 10.9453L4.57813 11.0117H4.26172V10.8711L4.25781 10.875Z" fill="#FAAE29"/>
<path fill-rule="evenodd" clip-rule="evenodd" d="M4.25391 10.8711H4.25781V10.8688H4.58344L4.58216 10.8703L4.63857 10.9186L4.66406 10.9501L4.57813 11.0197V11.0179H4.26172V11.0117H4.25552V10.8727L4.25391 10.8711ZM4.26792 11.0055H4.57593L4.65047 10.9451L4.57583 10.8812H4.26792V11.0055Z" fill="black"/>
<path fill-rule="evenodd" clip-rule="evenodd" d="M1.86719 11.0117H1.55078L1.46875 11.082L1.55078 11.1484H1.86328V11.0078L1.86719 11.0117Z" fill="#CA3745"/>
<path fill-rule="evenodd" clip-rule="evenodd" d="M1.86719 11.0039V11.0078H1.86949V11.1484H1.86329V11.1546H1.54577L1.54689 11.1532L1.49109 11.1081L1.46472 11.0773L1.55079 11.0035V11.0055H1.86558L1.86719 11.0039ZM1.47844 11.0819L1.55298 11.1422H1.85709V11.0179H1.55308L1.47844 11.0819Z" fill="black"/>
<path fill-rule="evenodd" clip-rule="evenodd" d="M1.86719 11.1445H1.55078L1.46875 11.2148L1.55078 11.2812H1.86328V11.1406L1.86719 11.1445Z" fill="#FAAE29"/>
<path fill-rule="evenodd" clip-rule="evenodd" d="M1.86719 11.1367V11.1406H1.86949V11.2812H1.86329V11.2874H1.54577L1.54689 11.2861L1.49109 11.2409L1.46472 11.2101L1.55079 11.1364V11.1383H1.86558L1.86719 11.1367ZM1.47844 11.2147L1.55298 11.275H1.85709V11.1507H1.55308L1.47844 11.2147Z" fill="black"/>
<path fill-rule="evenodd" clip-rule="evenodd" d="M1.86719 11.2773H1.55078L1.46875 11.3477L1.55078 11.4141H1.86328V11.2734L1.86719 11.2773Z" fill="#CA3745"/>
<path fill-rule="evenodd" clip-rule="evenodd" d="M1.86719 11.2695V11.2734H1.86949V11.414H1.86329V11.4202H1.54577L1.54689 11.4189L1.49109 11.3737L1.46472 11.3429L1.55079 11.2692V11.2711H1.86558L1.86719 11.2695ZM1.47844 11.3475L1.55298 11.4078H1.85709V11.2835H1.55308L1.47844 11.3475Z" fill="black"/>
<path fill-rule="evenodd" clip-rule="evenodd" d="M1.86719 11.4141H1.55078L1.46875 11.4805L1.55078 11.5508H1.86328V11.4102L1.86719 11.4141Z" fill="#FAAE29"/>
<path fill-rule="evenodd" clip-rule="evenodd" d="M1.86718 11.4063V11.4102H1.86947V11.5508H1.86328V11.557H1.54546L1.54674 11.5555L1.49033 11.5072L1.46484 11.4757L1.55078 11.4061V11.4079H1.86557L1.86718 11.4063ZM1.47843 11.4806L1.55307 11.5446H1.85708V11.4203H1.55297L1.47843 11.4806Z" fill="black"/>
<path fill-rule="evenodd" clip-rule="evenodd" d="M1.86719 10.875H1.55078L1.46875 10.9453L1.55078 11.0117H1.86328V10.8711L1.86719 10.875Z" fill="#FAAE29"/>
<path fill-rule="evenodd" clip-rule="evenodd" d="M1.86719 10.8672V10.8711H1.86949V11.0117H1.86329V11.0179H1.54577L1.54689 11.0165L1.49109 10.9714L1.46472 10.9406L1.55079 10.8668V10.8688H1.86558L1.86719 10.8672ZM1.47844 10.9452L1.55298 11.0055H1.85709V10.8812H1.55308L1.47844 10.9452Z" fill="black"/>
<path fill-rule="evenodd" clip-rule="evenodd" d="M1.38672 10.4336V11.9922H1.78906V12.3711H4.33984V11.9922H4.73437V10.4336H4.33984V10.0625H1.78906V10.4336H1.38672ZM1.46875 10.5039V11.9258H1.86328V12.2969H4.25781V11.9258H4.66016V10.5039H4.25781V10.1367H1.86328V10.5078H1.46875V10.5039Z" fill="#970000"/>
<path fill-rule="evenodd" clip-rule="evenodd" d="M1.78907 10.0559H4.33985V10.0624H4.34638V10.427H4.73438V10.4335H4.74091V11.9921H4.73438V11.9987H4.34638V12.371H4.33985V12.3776H1.78907V12.371H1.78253V11.9987H1.38672V11.9921H1.38019V10.4335H1.38672V10.427H1.78253V10.0624H1.78907V10.0559ZM1.7956 10.069V10.4335H1.78907V10.4401H1.39326V11.9856H1.78907V11.9921H1.7956V12.3645H4.33331V11.9921H4.33985V11.9856H4.72784V10.4401H4.33985V10.4335H4.33331V10.069H1.7956ZM1.86328 10.1301H4.25782V10.1367H4.26435V10.4973H4.66016V10.5038H4.66669V11.9257H4.66016V11.9323H4.26435V12.2968H4.25782V12.3034H1.86328V12.2968H1.85675V11.9323H1.46875V11.9257H1.46222V10.5038H1.46875V10.5012H1.85675V10.1367H1.86328V10.1301ZM1.86982 10.1432V10.5078H1.86328V10.5143H1.47529V11.9192H1.86328V11.9257H1.86982V12.2903H4.25128V11.9257H4.25782V11.9192H4.65363V10.5104H4.25782V10.5038H4.25128V10.1432H1.86982Z" fill="black"/>
<path fill-rule="evenodd" clip-rule="evenodd" d="M1.72086 5.88672C2.20983 5.07717 2.79173 4.33005 3.45179 3.66016H3.69923L4.10157 3.875H4.57813L4.81641 4.08984V4.30469L5.0547 4.59375L5.0586 4.58984V5.16797L4.82032 5.45703V5.67187L4.57813 5.88672H4.10157L3.69923 6.10156H2.42579L2.02735 5.88672H1.72086Z" fill="#CA3745"/>
<path fill-rule="evenodd" clip-rule="evenodd" d="M1.71698 5.89319H2.02577L2.42237 6.10803L3.69927 6.10889L4.10321 5.89319H4.57817V5.89534L4.82461 5.67673L4.82677 5.67916V5.45939L5.06359 5.1721L5.06505 5.17331V4.59256L5.10629 4.55132L5.05968 4.58973L4.82286 4.30245V4.0899H4.82602L4.58246 3.8703L4.58395 3.86865H4.10321L3.70269 3.65381L3.4581 3.65381C3.45388 3.65808 3.44968 3.66235 3.44547 3.66662H3.69766L4.09819 3.88147H4.57571L4.81005 4.09275V4.30475H4.80815L5.04979 4.59788L5.05223 4.59587V5.16573L4.81542 5.45302L4.81395 5.45181V5.66905L4.57574 5.88037L4.10161 5.87951L3.69766 6.09521H2.42745L2.03085 5.88037H1.72472C1.72214 5.88464 1.71956 5.88891 1.71698 5.89319ZM5.05968 4.58973L5.06317 4.59443L5.06505 4.59256V4.5899L5.05968 4.58973Z" fill="black"/>
<path fill-rule="evenodd" clip-rule="evenodd" d="M1.76364 5.81641C1.96001 5.49628 2.17097 5.18608 2.3956 4.88672H3.06249V6.02734H2.50781L2.10546 5.81641H1.76364Z" fill="#FAAE29"/>
<path fill-rule="evenodd" clip-rule="evenodd" d="M2.39062 5.38281L2.10156 5.57031H1.92578L1.98437 5.63281L1.86719 5.75391L1.92578 5.81641L2.10156 5.75391L2.16016 5.81641L2.18359 5.65234L2.50781 5.45313L2.39062 5.38281Z" fill="#CA3745"/>
<path fill-rule="evenodd" clip-rule="evenodd" d="M3.0625 4.0743C3.16591 3.95896 3.27153 3.84563 3.37928 3.73438H3.62109L4.01953 3.94531H4.49609L4.73828 4.16406V4.37891L4.97656 4.66797V4.88281H3.0625V4.0743Z" fill="#FAAE29"/>
<path fill-rule="evenodd" clip-rule="evenodd" d="M3.0625 6.03125H2.91406L2.74609 5.88672H2.47266L2.32422 5.81641L2.39844 5.74609L2.54687 5.81641H2.69531L2.83984 5.59766L3.0625 5.66797V5.81641H2.83984L3.0625 6.02734V6.03125Z" fill="#CA3745"/>
<path fill-rule="evenodd" clip-rule="evenodd" d="M2.39853 4.88285C2.60821 4.60365 2.82978 4.3339 3.06249 4.07434V4.88285H2.39853Z" fill="white"/>
<path fill-rule="evenodd" clip-rule="evenodd" d="M3.22913 3.89224C3.25437 3.86522 3.27973 3.83831 3.30522 3.81152L3.38281 3.87501H3.65234L3.80078 3.94532L3.73047 4.01563L3.57812 3.94532H3.43359L3.28516 4.16407L3.0625 4.09376V4.07431C3.1013 4.03103 3.14042 3.98803 3.17984 3.94532H3.28516L3.22913 3.89224Z" fill="#CA3745"/>
<path fill-rule="evenodd" clip-rule="evenodd" d="M4.97656 4.88281V5.09766L4.73828 5.38281V5.59766L4.49609 5.81641H4.01953L3.62109 6.02734H3.0625V4.88672H4.97656V4.88281Z" fill="white"/>
<path fill-rule="evenodd" clip-rule="evenodd" d="M2.02206 5.41338C2.05395 5.36576 2.08618 5.31838 2.11873 5.27124L2.1875 5.3125L2.02206 5.41338Z" fill="#CA3745"/>
<path fill-rule="evenodd" clip-rule="evenodd" d="M2.00854 5.43359C2.13347 5.24622 2.26354 5.06256 2.39853 4.88281H3.06249V5.88672H2.99218L3.06249 5.95703V6.03516L2.83983 5.82031V5.75H2.91405V5.82031H2.98827V5.75L2.39062 5.43359H2.00854Z" fill="white"/>
<path fill-rule="evenodd" clip-rule="evenodd" d="M2.39853 4.88285C2.60821 4.60365 2.82978 4.3339 3.06249 4.07434V4.88285H2.39853Z" fill="#FAAE29"/>
<path fill-rule="evenodd" clip-rule="evenodd" d="M2.0426 5.38281C2.15707 5.21301 2.27576 5.04629 2.39854 4.88281H3.0625V5.74219L2.42579 5.38281H2.0426Z" fill="#00843D"/>
<path fill-rule="evenodd" clip-rule="evenodd" d="M4.05469 4.52344L4.34766 4.33594H4.52344L4.46094 4.27734L4.57813 4.15234L4.52344 4.08984L4.34766 4.15234L4.28906 4.08984L4.26172 4.25781L3.94141 4.44922L4.05469 4.51953V4.52344ZM4.21484 4.8125L4.50781 4.625H4.67969L4.62109 4.5625L4.73828 4.4375L4.67969 4.37891L4.50391 4.44141L4.44922 4.37891L4.42188 4.54297L4.10156 4.73828L4.21484 4.80859V4.8125Z" fill="#CA3745"/>
<path fill-rule="evenodd" clip-rule="evenodd" d="M3.0625 4.07428V4.88279H4.61328L4.6875 4.81248L4.76172 4.88279H4.83594L4.68359 4.66795H4.61328L4.68359 4.74217L4.61328 4.81248H4.46484L4.24219 4.64842V4.33592H3.73438L3.13672 4.01561V3.99226C3.11186 4.01948 3.08712 4.04683 3.0625 4.07428ZM3.17984 3.94529C3.19621 3.92755 3.21264 3.90986 3.22913 3.89221L3.28516 3.94529V4.01561H3.21094V3.94529H3.17984Z" fill="white"/>
<path fill-rule="evenodd" clip-rule="evenodd" d="M3.0625 4.07435C3.0734 4.0622 3.08432 4.05007 3.09526 4.03796L3.70312 4.37896H4.17969V4.66802L4.5 4.88287H4.49609H3.0625V4.07435Z" fill="#00843D"/>
<path fill-rule="evenodd" clip-rule="evenodd" d="M3.73828 5.38281L4.02734 5.57031H4.20312L4.14453 5.63281L4.25781 5.75391L4.20312 5.81641L4.02734 5.75391L3.96875 5.81641L3.94141 5.65234L3.62109 5.45313L3.73828 5.38281Z" fill="#CA3745"/>
<path fill-rule="evenodd" clip-rule="evenodd" d="M4.05469 5.24219L4.34766 5.42578H4.52344L4.46094 5.48828L4.57813 5.60938L4.52344 5.67188L4.34766 5.60938L4.28906 5.67188L4.26172 5.50781L3.94141 5.3125L4.05469 5.24219ZM4.21484 4.95312L4.50781 5.13672H4.67969L4.62109 5.19922L4.73828 5.32031L4.67969 5.38281L4.50391 5.32031L4.44922 5.38281L4.42188 5.21875L4.10156 5.02734L4.21484 4.95703V4.95312Z" fill="#CA3745"/>
<path fill-rule="evenodd" clip-rule="evenodd" d="M4.83594 4.88281H4.76172L4.6875 4.95313L4.61328 4.88281H3.0625V5.88672H3.13672L3.0625 5.95703V6.03516L3.28516 5.82031V5.75H3.21094V5.82031H3.13672V5.75L3.73438 5.43359H4.24219V5.11719L4.46484 4.96094H4.61328L4.68359 5.03125L4.61328 5.10156H4.68359L4.83594 4.89063V4.88281Z" fill="#FAAE29"/>
<path fill-rule="evenodd" clip-rule="evenodd" d="M3.22266 4.88281L3.62109 4.66797H3.86328L3.78125 4.59766L3.94141 4.44922L3.86328 4.37891L3.62109 4.44922L3.54297 4.37891L3.50781 4.57422L3.0625 4.79688L3.22266 4.88281ZM2.90625 4.88281L2.50781 5.09766H2.26953L2.34766 5.16797L2.1875 5.3125L2.26953 5.38281L2.50781 5.3125L2.58594 5.38281L2.62109 5.19141L3.0625 4.96484L2.90625 4.88281Z" fill="#CA3745"/>
<path fill-rule="evenodd" clip-rule="evenodd" d="M2.58594 4.88281L3.0625 4.52344L3.54297 4.88281L3.0625 5.24219L2.58594 4.88281Z" fill="white"/>
<path fill-rule="evenodd" clip-rule="evenodd" d="M2.39853 4.88281C2.60821 4.60361 2.82978 4.33386 3.06249 4.0743V4.88281H2.39853ZM3.06249 4.88281H4.49609H4.49999L4.17968 5.09766V5.38281H3.70312L3.2948 5.61187L3.43359 5.81641H3.57812L3.73046 5.74609L3.80078 5.81641L3.65234 5.88672H3.38281L3.21093 6.03125H3.06249V6.02734L3.28515 5.81641H3.06249V5.74219V5.66797V4.88281ZM4.02734 4.19141L3.73828 4.37891L3.62109 4.30859L3.9414 4.11328L3.96874 3.94531L4.02734 4.01172L4.20312 3.94531L4.25781 4.01172L4.14453 4.13281L4.20312 4.19141H4.02734ZM4.61328 5.02734L4.54296 5.09766L4.61328 5.16797H4.68749L4.91015 4.88281H4.83984L4.68749 5.09766H4.61718L4.68749 5.02734L4.61718 4.95703H4.46484V5.02734H4.61328Z" fill="#CA3745"/>
<path fill-rule="evenodd" clip-rule="evenodd" d="M4.61719 4.73828L4.53906 4.66797L4.61328 4.59766H4.6875L4.91016 4.88281H4.83984L4.6875 4.66797H4.61719L4.6875 4.73828L4.61719 4.80859H4.46484V4.73828H4.61719ZM2.98828 4.59766H3.13672V5.17188H2.98828V4.59766Z" fill="#CA3745"/>
<path fill-rule="evenodd" clip-rule="evenodd" d="M2.54709 4.68916C2.57599 4.65226 2.6051 4.61553 2.63442 4.57898L3.06642 4.79689L2.91017 4.88283H2.90626L2.54709 4.68916ZM3.62111 5.09767L3.22267 4.88283L3.06251 4.96486L3.50783 5.19142L3.54298 5.38283L3.62111 5.31252L3.8633 5.38283L3.94142 5.31252L3.78126 5.16799L3.8633 5.09767H3.62111Z" fill="#00843D"/>
<path fill-rule="evenodd" clip-rule="evenodd" d="M2.76953 4.73828H3.35938V5.02734H2.76953V4.73828Z" fill="#CA3745"/>
<path fill-rule="evenodd" clip-rule="evenodd" d="M1.55261 17.9899C1.37533 17.677 1.21169 17.3554 1.0625 17.0259V16.5313L2.39062 15.8008L2.40234 15.8164H3.72656L5.05078 16.5313V17.7227L3.72656 18.4531H2.40234L1.55261 17.9899Z" fill="#00843D"/>
<path fill-rule="evenodd" clip-rule="evenodd" d="M1.55906 18.0012L2.39871 18.4596L3.72647 18.4605L5.05383 17.7283L5.05719 17.7344V16.5312H5.06437L3.72998 15.8099H2.4055L2.39573 15.7969L1.05928 16.5255L1.05591 16.5194V17.0113C1.06023 17.0209 1.06456 17.0305 1.06891 17.04V16.5351L2.38872 15.8092L2.39705 15.8203L2.39358 15.8229H3.72483L5.04419 16.5351V17.7188L3.7248 18.4466H2.40391L1.54659 17.9792C1.55074 17.9866 1.55489 17.9939 1.55906 18.0012Z" fill="black"/>
<path fill-rule="evenodd" clip-rule="evenodd" d="M1.56641 17.0156H1.64453V16.8633H1.80469V17.0117H1.88672V16.668H1.80469V16.8125H1.64844V16.668H1.56641V17.0156ZM3.60156 18.1602H3.68359V18.0117H3.83984V18.1602H3.92188V17.8125H3.84375V17.9609H3.68359V17.8125H3.60547V18.1562L3.60156 18.1602ZM2.31641 16.4375H2.39453V16.293H2.55859V16.4414H2.63281V16.0977H2.55859V16.2461H2.39453V16.0977H2.31641V16.4414V16.4375ZM3.49219 16.4375H3.57422V16.293H3.73438V16.4414H3.81641V16.0977H3.73438V16.2461H3.57422V16.0977H3.49219V16.4414V16.4375ZM4.24609 17.0156H4.32031V16.8633H4.48438V17.0117H4.56641V16.668H4.48438V16.8125H4.32031V16.668H4.24609V17.0156ZM4.24609 17.5859H4.32031V17.4414H4.48438V17.5859H4.56641V17.2422H4.48438V17.3906H4.32031V17.2422H4.24609V17.5859Z" fill="#CC0000"/>
<path fill-rule="evenodd" clip-rule="evenodd" d="M3.0625 18.3906V17.125H4.99219V17.6992L3.70312 18.3906H3.05859H3.0625ZM3.0625 15.8672V17.125H1.13672V16.5547L2.41797 15.8672H3.0625Z" fill="#FAAE29"/>
<path fill-rule="evenodd" clip-rule="evenodd" d="M1.49938 17.8949C1.37095 17.6634 1.24996 17.4272 1.13672 17.1867V17.125H3.0625V18.3906H2.41797L1.49938 17.8949ZM3.0625 17.125H4.99219V16.5547L3.70312 15.8672H3.0625V17.125Z" fill="white"/>
<path fill-rule="evenodd" clip-rule="evenodd" d="M4.09375 16.6133H4.86719L4.09375 16.2734V16.6133ZM4.99219 16.5547V17.1289H3.77344V16.6719H3.51562L3.19531 16.5V16.1016L3.39062 15.9258H3.13281V16.5H3.06641V15.8711H3.71094L4.99219 16.5547Z" fill="#FAAE29"/>
<path fill-rule="evenodd" clip-rule="evenodd" d="M3.06812 15.8728V16.4983H3.1311V15.9258H3.13282V15.9241H3.38909L3.39177 15.9271L3.19703 16.1023V16.499L3.51606 16.6702H3.77344V16.6719H3.77515V17.1272H4.99048V16.5557L3.71051 15.8728H3.06812ZM4.99219 17.1289H4.9939V16.5547H4.99583L3.71175 15.8696L3.06641 15.8694V15.8711H3.0647V16.5H3.06641V16.5017H3.13282V16.5H3.13453V15.9275H3.38616L3.19417 16.1003L3.1936 16.5H3.19169L3.51482 16.6734L3.77173 16.6736V17.1289H3.77344V17.1306H4.99219V17.1289ZM4.09444 16.2719L4.86719 16.6114V16.615H4.09375V16.6133H4.09204V16.2773L4.09444 16.2719ZM4.09547 16.2761V16.6116H4.85904L4.09547 16.2761Z" fill="black"/>
<path fill-rule="evenodd" clip-rule="evenodd" d="M2.41797 16.7266V17.5312H2.61328L3.0625 17.7617L3.51172 17.5312H3.70703V16.7305H3.51172L3.0625 16.5L2.61328 16.7305H2.41797V16.7266Z" fill="#CA3745"/>
<path fill-rule="evenodd" clip-rule="evenodd" d="M1.50025 17.8965L2.42188 18.3867H3.0625V17.7578H2.99609V18.332H2.74219L2.9375 18.1562V17.7578L2.61328 17.5859H2.35547V17.1289H1.13672V17.1867C1.20942 17.3411 1.28532 17.4938 1.36434 17.6445H2.03516V17.9844L1.39531 17.7032C1.42971 17.768 1.4647 17.8324 1.50025 17.8965Z" fill="#FAAE29"/>
<path fill-rule="evenodd" clip-rule="evenodd" d="M1.50177 17.8993L2.42104 18.3882L3.06247 18.3884V18.3867H3.06419V17.7578H3.06247V17.7561H2.99607V17.7578H2.99435V18.3303H2.74662L2.93862 18.1575L2.93919 17.7578H2.94113L2.61406 17.5844L2.35715 17.5842V17.1289H2.35544V17.1272H1.13669V17.1289H1.13498V17.183C1.13612 17.1854 1.13726 17.1878 1.13841 17.1903V17.1306H2.35373V17.5859H2.35544V17.5877H2.61283L2.93576 17.7588V18.1555L2.74101 18.3308L2.7437 18.3337H2.99607V18.332H2.99778V17.7595H3.06076V18.385H2.42228L1.49872 17.8938C1.49974 17.8956 1.50075 17.8974 1.50177 17.8993ZM1.3966 17.7057L2.03444 17.9859L2.03684 17.9805V17.6445H2.03513V17.6428H1.36343C1.36403 17.644 1.36462 17.6451 1.36522 17.6462H2.03342V17.9818L1.394 17.7008C1.39487 17.7024 1.39573 17.7041 1.3966 17.7057Z" fill="black"/>
<path fill-rule="evenodd" clip-rule="evenodd" d="M2.03516 16.6133H1.26172L2.03516 16.2734V16.6133ZM1.13672 16.5547V17.1289H2.35547V16.6719H2.61328L2.9375 16.5V16.1016L2.74219 15.9258H2.99609V16.5H3.0625V15.8711H2.42188L1.13672 16.5547Z" fill="white"/>
<path fill-rule="evenodd" clip-rule="evenodd" d="M2.42188 15.8694H3.0625V15.8711H3.06422V16.5H3.0625V16.5017H2.9961V16.5H2.99438V15.9275H2.74665L2.94006 16.1016L2.93922 16.5032L2.93831 16.5015L2.61409 16.6734L2.35719 16.6736V17.1289H2.35547V17.1306H1.13672V17.1289H1.13501V16.5515L1.13592 16.5532L2.42188 15.8694ZM1.13844 17.1272H2.35376V16.6719H2.35547V16.6702H2.61286L2.93579 16.499V16.1023L2.74219 15.9281V15.9241H2.9961V15.9258H2.99781V16.4983H3.06079V15.8728H2.42231L1.13844 16.5557V17.1272ZM1.26103 16.6117L2.0309 16.2734H2.03687V16.6133H2.03516V16.615L1.26241 16.6149L1.26103 16.6117ZM2.03345 16.6116V16.2761L1.26988 16.6116H2.03345Z" fill="black"/>
<path fill-rule="evenodd" clip-rule="evenodd" d="M4.09375 17.6445H4.86719L4.09375 17.9844V17.6445ZM4.99219 17.7031V17.1289H3.77344V17.5859H3.51562L3.19531 17.7578V18.1562L3.39062 18.332H3.13281V17.7578H3.06641V18.3867H3.71094L4.99219 17.7031Z" fill="white"/>
<path fill-rule="evenodd" clip-rule="evenodd" d="M3.77344 17.1272H4.99219V17.1289H4.9939V17.7063L4.993 17.7046L3.71175 18.3882L3.06641 18.3884V18.3867H3.0647V17.7578H3.06641V17.7561H3.13282V17.7578H3.13453V18.3303H3.38616L3.19276 18.1563L3.1936 17.7546L3.19451 17.7563L3.51482 17.5844L3.77173 17.5842V17.1289H3.77344V17.1272ZM3.77515 17.1306V17.5859H3.77344V17.5877H3.51606L3.19703 17.7588V18.1555L3.39063 18.3297V18.3337H3.13282V18.332H3.1311V17.7595H3.06812V18.385H3.71051L4.99048 17.7021V17.1306H3.77515ZM4.09547 17.6462V17.9818L4.85904 17.6462H4.09547ZM4.8665 17.643L4.09375 17.6428V17.6445H4.09204V17.9844H4.09801L4.86788 17.6461L4.8665 17.643Z" fill="black"/>
<path fill-rule="evenodd" clip-rule="evenodd" d="M1.52344 17.5859H1.60156V17.4102H1.76172V17.5859H1.84375V17.1875H1.76172V17.3594H1.60156V17.1836H1.52344V17.5859ZM2.29297 18.1602H2.375V17.9844H2.53125V18.1602H2.61328V17.7578H2.53125V17.9336H2.375V17.7578H2.29297V18.1641V18.1602ZM1.51953 16.6719H1.60156V16.8438H1.76172V16.668H1.84375V17.0742H1.76172V16.8984H1.60156V17.0703H1.52344V16.6719H1.51953ZM2.29297 16.0977H2.375V16.2695H2.53125V16.0938H2.61328V16.4961H2.53125V16.3242H2.375V16.5H2.29297V16.0977ZM3.51172 18.1602H3.59375V17.9844H3.75391V18.1602H3.83594V17.7578H3.75391V17.9336H3.59375V17.7578H3.51172V18.1641V18.1602ZM4.28516 17.0703H4.36719V16.8984H4.52734V17.0742H4.60547V16.6719H4.52734V16.8438H4.37109V16.668H4.28906V17.0742L4.28516 17.0703Z" fill="#CA3745"/>
<path fill-rule="evenodd" clip-rule="evenodd" d="M3.51172 18.1602H3.59375V17.9844H3.75391V18.1602H3.83594V17.7578H3.75391V17.9336H3.59375V17.7578H3.51172V18.1641V18.1602Z" fill="#CA3745"/>
<path fill-rule="evenodd" clip-rule="evenodd" d="M3.51172 18.1602H3.59375V17.9844H3.75391V18.1602H3.83594V17.7578H3.75391V17.9336H3.59375V17.7578H3.51172V18.1641V18.1602ZM4.28516 17.5859H4.36719V17.4102H4.52734V17.5859H4.60547V17.1875H4.52734V17.3555H4.37109V17.1836H4.28906V17.5859H4.28516ZM3.51172 16.4961H3.59375V16.3242H3.75391V16.5H3.83594V16.0977H3.75391V16.2695H3.59375V16.0938H3.51172V16.4961Z" fill="#CA3745"/>
<path fill-rule="evenodd" clip-rule="evenodd" d="M3.12891 17.125L3.38672 16.9141H3.51172V17.0234H3.38672V17.0742H3.58203V16.8672H3.38672V16.707H3.12891V16.8672H3.19531V16.7617H3.32031V16.8672L3.0625 17.0781L2.80859 16.8672V16.7617H2.9375V16.8672H3V16.707H2.74219V16.8672H2.55078V17.0781H2.74219V17.0234H2.61328V16.918H2.74219L3 17.1289L2.74219 17.3359H2.61328V17.2344H2.74219V17.1797H2.55078V17.3906H2.74219V17.5469H3V17.3906H2.9375V17.4961H2.80859V17.3906L3.0625 17.1797L3.32031 17.3906V17.4961H3.19531V17.3906H3.12891V17.5469H3.38672V17.3906H3.58203V17.1797H3.38672V17.2344H3.51172V17.3359H3.38672L3.12891 17.125Z" fill="white"/>
<path fill-rule="evenodd" clip-rule="evenodd" d="M1.26172 8.24609L1.38672 8.11719H2.13281L2.69141 7.55469H3.44141L4 8.12109H4.74609L4.86719 8.24609L4.74609 8.37109H3.99609L3.4375 8.9375H2.6875L2.13281 8.37109H1.38281L1.25781 8.24609H1.26172Z" fill="#CA3745"/>
<path fill-rule="evenodd" clip-rule="evenodd" d="M1.32422 8.25781L1.39453 8.19531H2.16406L2.74219 7.60156H3.38281L3.96484 8.19922H4.73438L4.79688 8.26172L4.73438 8.32031H3.96484L3.44922 8.85547H2.67578L2.16406 8.32031H1.39062L1.32422 8.25781Z" fill="#CA3745"/>
<path fill-rule="evenodd" clip-rule="evenodd" d="M2.74219 7.5946V7.5967H3.38777L3.38627 7.59815L3.96688 8.19435H4.73376L4.80018 8.2652L4.73438 8.32688V8.3251H3.9669L3.44922 8.86238V8.86025H2.67074L2.6723 8.85876L2.162 8.3251H1.38608L1.38732 8.32378L1.36027 8.29832L1.32101 8.25416L1.39453 8.18882V8.19045H2.16203L2.74219 7.5946ZM1.33137 8.25787L1.39254 8.31545H2.16911L2.16755 8.31694L2.67784 8.8506H3.44717L3.96484 8.31332V8.31545H4.73247L4.78994 8.26157L4.73238 8.204H3.95989L3.96139 8.20254L3.38078 7.60635H2.74423L2.16406 8.20219V8.2001H1.39637L1.33137 8.25787ZM4.73638 8.19435H4.73376L4.69451 8.15249L4.73638 8.19435ZM4.73638 8.19435H4.7392L4.73779 8.19577L4.73638 8.19435Z" fill="black"/>
<path fill-rule="evenodd" clip-rule="evenodd" d="M3.37891 8.3125L3.625 8.55859L3.5 8.68359L3.4375 8.625H3.37891V8.68359L3.44141 8.75H3.56641L3.69141 8.625V8.49609L3.44141 8.24609L3.69141 7.99609V7.87109L3.56641 7.74609H3.44141L3.37891 7.80469V7.87109H3.44141L3.50391 7.80469L3.62891 7.93359L3.37891 8.18359L3.13281 7.93359L3.37891 7.67969V7.61719H3.31641L3.07031 7.87109L2.82031 7.61719H2.75781V7.67969L3.00391 7.93359L2.75781 8.18359L2.50781 7.93359L2.63281 7.80469L2.69531 7.87109H2.75781V7.80469L2.69531 7.74609H2.57031L2.44531 7.87109V7.99609L2.69531 8.24609L2.44531 8.49609V8.625L2.57031 8.75H2.69531L2.75781 8.68359V8.625H2.6875L2.625 8.68359L2.5 8.55859L2.75 8.3125L2.99609 8.55859L2.75 8.8125V8.875H2.8125L3.0625 8.625L3.30859 8.875H3.37109V8.8125L3.125 8.55859L3.37109 8.3125H3.37891ZM3.06641 7.99609L2.81641 8.24609L3.06641 8.49609L3.3125 8.24609L3.06641 7.99609ZM2.69141 8.9375V9.44141L2.75391 9.375L2.81641 9.44141L2.87891 9.375L2.9375 9.44141L3.00391 9.375L3.06641 9.44141L3.12891 9.375L3.1875 9.44141L3.25 9.375L3.3125 9.44141L3.375 9.375L3.44141 9.44141V8.9375H2.6875H2.69141ZM3.44141 7.55469V7.05078L3.375 7.11719L3.3125 7.05078L3.25 7.11719L3.1875 7.05078L3.12891 7.11719L3.06641 7.05078L3 7.11719L2.9375 7.05078L2.87891 7.11719L2.81641 7.05078L2.75391 7.11719L2.69141 7.05078V7.55469H3.44141ZM4.49219 8.12109V7.61719L4.43359 7.68359L4.37109 7.61719L4.30859 7.68359L4.24609 7.61719L4.18359 7.68359L4.12109 7.61719L4.05859 7.68359L4 7.61719V8.12109H4.49609H4.49219ZM2.13281 8.12109V7.61719L2.06641 7.68359L2.00781 7.61719L1.94531 7.68359L1.88281 7.61719L1.82031 7.68359L1.75781 7.61719L1.69531 7.68359L1.63281 7.61719V8.12109H2.13281ZM4.49609 8.37109V8.875L4.43359 8.80859L4.37109 8.875L4.30859 8.80859L4.24609 8.875L4.18359 8.80859L4.12109 8.875L4.05859 8.80859L4 8.875V8.37109H4.49609ZM2.12891 8.37109V8.875L2.06641 8.80859L2.00781 8.875L1.94531 8.80859L1.88281 8.875L1.82031 8.80859L1.75781 8.875L1.69531 8.80859L1.63281 8.875V8.37109H2.12891Z" fill="#FAAE29"/>
<path fill-rule="evenodd" clip-rule="evenodd" d="M3.4375 8.9375V9.25L3.5 9.1875L3.5625 9.25391L3.625 9.1875L3.6875 9.25391L3.74609 9.1875L3.80859 9.25391L3.875 9.1875L3.9375 9.25391L4 9.1875V8.37109L3.4375 8.9375ZM2.69141 8.9375V9.25L2.625 9.1875L2.56641 9.25391L2.50391 9.1875L2.44141 9.25391L2.37891 9.1875L2.31641 9.25391L2.25781 9.1875L2.19531 9.25391L2.12891 9.1875V8.37109L2.69141 8.9375ZM2.69141 7.55469V7.24219L2.625 7.30469L2.56641 7.24219L2.50391 7.30469L2.44141 7.24219L2.37891 7.30469L2.31641 7.24219L2.25781 7.30469L2.19531 7.24219L2.12891 7.30469V8.12109L2.69141 7.55469ZM3.4375 7.55469V7.24219L3.5 7.30469L3.5625 7.24219L3.625 7.30469L3.6875 7.24219L3.74609 7.30469L3.80859 7.24219L3.87109 7.30469L3.9375 7.24219L4 7.30469V8.12109L3.4375 7.55469ZM1.63281 8.75L1.57031 8.68359L1.50781 8.75391L1.44922 8.68359L1.38672 8.75391L1.32422 8.68359L1.25781 8.75391L1.19531 8.68359L1.13672 8.75391V7.74219L1.19531 7.80859L1.25781 7.74219L1.32422 7.80859L1.38672 7.74219L1.44922 7.80859L1.50781 7.74219L1.57031 7.80859L1.63281 7.74219V8.12109H1.38672L1.25781 8.24609L1.38672 8.37109H1.63281V8.75ZM4.49609 8.75L4.55859 8.68359L4.61719 8.75391L4.67969 8.68359L4.74609 8.75391L4.80859 8.68359L4.86719 8.75391L4.92969 8.68359L4.99219 8.75391V7.74219L4.92969 7.80859L4.86719 7.74219L4.80859 7.80859L4.74609 7.74219L4.67969 7.80859L4.61719 7.74219L4.55859 7.80859L4.49609 7.74219V8.12109H4.74609L4.86719 8.24609L4.74609 8.37109H4.49609V8.75Z" fill="#00843D"/>
<path fill-rule="evenodd" clip-rule="evenodd" d="M2.38281 8.97656C2.38281 8.97656 2.33203 9.02344 2.33203 9.05078C2.33203 9.07422 2.38672 9.125 2.41406 9.125C2.44141 9.125 2.48828 9.07422 2.48828 9.05078C2.48828 9.02734 2.4375 8.97656 2.4375 8.97656V8.875C2.4375 8.875 2.54687 9.04687 2.54687 8.97656C2.54687 8.92187 2.4375 8.82812 2.4375 8.82812H2.38281C2.38281 8.82812 2.27344 8.9375 2.27344 8.97656C2.27344 9.04687 2.38281 8.875 2.38281 8.875V8.97656Z" fill="white"/>
<path fill-rule="evenodd" clip-rule="evenodd" d="M3.03125 9.17188C3.03125 9.17188 2.97265 9.23828 2.97265 9.26953C2.97265 9.30469 3.03515 9.37891 3.0664 9.37891C3.10156 9.37891 3.15625 9.30859 3.15625 9.27344C3.15625 9.24219 3.09375 9.17188 3.09375 9.17188V9.02734C3.09375 9.02734 3.20312 9.25781 3.20312 9.15234C3.20312 9.08594 3.09375 8.96094 3.09375 8.96094H3.03125C3.03125 8.96094 2.90625 9.11719 2.92578 9.15234C2.92578 9.25781 3.03125 9.02734 3.03125 9.02734V9.17188Z" fill="#CA3745"/>
<path d="M2.37891 8.30859C2.44531 8.30859 2.5 8.27734 2.5 8.24219C2.5 8.20703 2.44531 8.17969 2.37891 8.17969C2.3125 8.17969 2.25781 8.20703 2.25781 8.24219C2.25781 8.27734 2.3125 8.30859 2.37891 8.30859Z" fill="#00843D"/>
<path d="M3.06641 8.30859C3.13281 8.30859 3.1875 8.27734 3.1875 8.24219C3.1875 8.20703 3.13281 8.17969 3.06641 8.17969C2.99609 8.17969 2.94141 8.20703 2.94141 8.24219C2.94141 8.27734 2.99609 8.30859 3.06641 8.30859Z" fill="#00843D"/>
<path d="M3.74609 8.30859C3.81641 8.30859 3.87109 8.27734 3.87109 8.24219C3.87109 8.20703 3.81641 8.17969 3.74609 8.17969C3.67969 8.17969 3.625 8.20703 3.625 8.24219C3.625 8.27734 3.67969 8.30859 3.74609 8.30859Z" fill="#00843D"/>
<path fill-rule="evenodd" clip-rule="evenodd" d="M2.37109 7.52344C2.37109 7.52344 2.32031 7.47266 2.32031 7.44922C2.32031 7.42578 2.375 7.37109 2.39844 7.37109C2.42578 7.37109 2.47266 7.42188 2.47266 7.44531C2.47266 7.47266 2.42187 7.52344 2.42187 7.52344V7.625C2.42187 7.625 2.53516 7.44922 2.53516 7.52344C2.53516 7.57813 2.42578 7.67188 2.42578 7.67188H2.37109C2.37109 7.67188 2.26172 7.5625 2.26172 7.52734C2.26172 7.45313 2.36719 7.62109 2.36719 7.62109V7.51953L2.37109 7.52344Z" fill="white"/>
<path fill-rule="evenodd" clip-rule="evenodd" d="M3.01953 7.32813C3.01953 7.32813 2.95703 7.25781 2.95703 7.22656C2.95703 7.19141 3.02734 7.12109 3.05078 7.12109C3.08594 7.12109 3.14453 7.1875 3.14453 7.22266C3.14453 7.25781 3.08203 7.33203 3.08203 7.33203V7.46484C3.08203 7.46484 3.19141 7.23828 3.19141 7.34375C3.19141 7.41016 3.08203 7.53906 3.08203 7.53906H3.01563C3.01563 7.53906 2.88672 7.38281 2.90625 7.34375C2.90625 7.24219 3.01563 7.46875 3.01563 7.46875V7.32813H3.01953Z" fill="#CA3745"/>
<path fill-rule="evenodd" clip-rule="evenodd" d="M3.70703 8.97656C3.70703 8.97656 3.65625 9.02344 3.65625 9.05078C3.65625 9.07422 3.71094 9.125 3.73828 9.125C3.76562 9.125 3.8125 9.07422 3.8125 9.05078C3.8125 9.02734 3.76172 8.97656 3.76172 8.97656V8.875C3.76172 8.875 3.87109 9.04688 3.87109 8.97656C3.87109 8.92188 3.76172 8.82813 3.76172 8.82813H3.70312C3.70312 8.82813 3.59375 8.9375 3.59375 8.97656C3.59375 9.04688 3.70312 8.875 3.70312 8.875V8.97656H3.70703ZM3.69531 7.52344C3.69531 7.52344 3.64453 7.47266 3.64453 7.44531C3.64453 7.42578 3.69922 7.37109 3.72266 7.37109C3.75 7.37109 3.79687 7.42188 3.79687 7.44531C3.79687 7.47266 3.74609 7.52344 3.74609 7.52344V7.625C3.74609 7.625 3.85937 7.44922 3.85937 7.52344C3.85937 7.57813 3.75 7.67188 3.75 7.67188H3.69531C3.69531 7.67188 3.58594 7.5625 3.58594 7.52734C3.58594 7.45313 3.69531 7.62109 3.69531 7.62109V7.51953V7.52344Z" fill="white"/>
<path fill-rule="evenodd" clip-rule="evenodd" d="M1.84375 8.62891C1.84375 8.62891 1.77344 8.67578 1.77344 8.69531C1.77344 8.71875 1.84766 8.76953 1.87891 8.76562C1.91406 8.76562 1.98047 8.72266 1.98047 8.69922C1.98047 8.67578 1.91016 8.62891 1.91016 8.62891V8.53516C1.91016 8.53516 2.03516 8.68359 2.03516 8.61719C2.03516 8.57031 1.91016 8.48438 1.91016 8.48438H1.84375C1.84375 8.48438 1.70312 8.59375 1.72266 8.61719C1.72266 8.68359 1.84375 8.53516 1.84375 8.53516V8.62891ZM1.82812 7.91797C1.82812 7.91797 1.75781 7.87109 1.75781 7.84766C1.75781 7.82422 1.83203 7.77344 1.86328 7.77734C1.90234 7.77734 1.96484 7.82422 1.96484 7.84766C1.96484 7.87109 1.89844 7.91406 1.89844 7.91406V8.00781C1.89844 8.00781 2.01953 7.85547 2.01953 7.92578C2.01953 7.96875 1.89844 8.05469 1.89844 8.05469H1.82812C1.82812 8.05469 1.6875 7.94922 1.70703 7.92578C1.70703 7.85937 1.82812 8.00781 1.82812 8.00781V7.91797ZM4.23437 8.60938C4.23437 8.60938 4.16016 8.65625 4.16016 8.67969C4.16016 8.70703 4.23828 8.75391 4.26953 8.75391C4.30859 8.75391 4.37109 8.70703 4.37109 8.68359C4.37109 8.65625 4.30078 8.60938 4.30078 8.60938V8.51953C4.30078 8.51953 4.42187 8.67187 4.42187 8.60156C4.42187 8.55859 4.30469 8.47266 4.30469 8.47266H4.23047C4.23047 8.47266 4.09375 8.57812 4.10937 8.60156C4.10937 8.67187 4.23437 8.51953 4.23437 8.51953V8.61328V8.60938ZM4.21875 7.90234C4.21875 7.90234 4.14844 7.85547 4.14844 7.83203C4.14844 7.80859 4.22266 7.76172 4.25781 7.76172C4.29297 7.76172 4.35937 7.80859 4.35937 7.82812C4.35937 7.85547 4.28516 7.89844 4.28516 7.89844V7.99609C4.28516 7.99609 4.41016 7.84375 4.41016 7.91016C4.41016 7.95703 4.28906 8.04297 4.28906 8.04297H4.21484C4.21484 8.04297 4.07812 7.9375 4.09766 7.91406C4.09766 7.84375 4.21875 7.99609 4.21875 7.99609V7.89844V7.90234Z" fill="#CA3745"/>
<path fill-rule="evenodd" clip-rule="evenodd" d="M1.33594 8.62109C1.3125 8.57812 1.32031 8.55859 1.32031 8.53516C1.32031 8.50781 1.38281 8.46484 1.40234 8.46484C1.43359 8.46484 1.48047 8.51172 1.48047 8.53906C1.48047 8.5625 1.48047 8.58203 1.46875 8.62891L1.44141 8.55859C1.39844 8.65625 1.39844 8.65625 1.375 8.55469L1.33984 8.62109H1.33594ZM1.33594 7.89453C1.31641 7.94141 1.32031 7.96094 1.32031 7.98438C1.32031 8.00781 1.38281 8.05078 1.40625 8.05078C1.4375 8.05078 1.48437 8.00391 1.48437 7.97656C1.48437 7.95312 1.48437 7.93359 1.47266 7.89063L1.44141 7.96094C1.40234 7.85937 1.39844 7.85937 1.375 7.96484L1.33984 7.89453H1.33594ZM4.6914 8.60938C4.66797 8.56641 4.67187 8.54687 4.67187 8.52344C4.67187 8.5 4.73828 8.45703 4.76172 8.45703C4.78906 8.45703 4.83594 8.50781 4.83594 8.53125C4.83594 8.55469 4.83594 8.57812 4.82422 8.61719L4.79297 8.54688C4.75781 8.64844 4.75391 8.65234 4.72656 8.54688L4.6914 8.60938ZM4.6914 7.89063C4.66797 7.92969 4.67578 7.94922 4.67578 7.97656C4.67578 7.99609 4.73828 8.04297 4.76172 8.04297C4.78906 8.04297 4.83984 7.99609 4.83984 7.96875C4.83984 7.94531 4.83984 7.92187 4.82812 7.87891L4.79297 7.95313C4.75781 7.84766 4.75781 7.84766 4.73047 7.95313L4.69531 7.88672L4.6914 7.89063Z" fill="white"/>
<path fill-rule="evenodd" clip-rule="evenodd" d="M2.67969 9.45703V9.27344H2.10156V8.91797H1.58594V8.80078H1.13672V7.72266H1.58594V7.60156H2.10156V7.24609H2.67969V7.06641H3.44922V7.24609H4.03125V7.60156H4.54297V7.72266H4.99609V8.80078H4.54688V8.91797H4.03516V9.27344H3.45312V9.45312H2.68359L2.67969 9.45703ZM2.61719 9.51172V9.33594H2.03516V8.97656H1.52344V8.85547H1.07422V7.66406H1.52344V7.54687H2.03516V7.18359H2.61719V7.00781H3.51562V7.18359H4.09766V7.54687H4.60937V7.66406H5.05859V8.85547H4.60937V8.97656H4.09375V9.33594H3.51172V9.51172H2.61719Z" fill="#CA3745"/>
<path fill-rule="evenodd" clip-rule="evenodd" d="M2.61894 7.0096V7.18363H2.6172V7.18538H2.03691V7.54691H2.03517V7.54866H1.52519V7.6641H1.52345V7.66585H1.07598V8.85376H1.52345V8.85551H1.52519V8.97485H2.03517V8.9766H2.03691V9.33423H2.6172V9.33598H2.61894V9.51001H3.50998V9.33598H3.51173V9.33423H4.09201V8.9766H4.09376V8.97485H4.60764V8.85551H4.60938V8.85376H5.05685V7.66585H4.60938V7.6641H4.60764V7.54866H4.09767V7.54691H4.09592V7.18538H3.51563V7.18363H3.51389V7.0096H2.61894ZM3.51563 7.00785V7.0061H2.6172V7.00785H2.61545V7.18188H2.03517V7.18363H2.03342V7.54517H1.52345V7.54691H1.5217V7.66235H1.07423V7.6641H1.07248V8.85551H1.07423V8.85726H1.5217V8.9766H1.52345V8.97835H2.03342V9.33598H2.03517V9.33772H2.61545V9.51176H2.6172V9.51351H3.51173V9.51176H3.51348V9.33772H4.09376V9.33598H4.09551V8.97835H4.60938V8.9766H4.61113V8.85726H5.0586V8.85551H5.06035V7.6641H5.0586V7.66235H4.61113V7.54691H4.60938V7.54517H4.09941V7.18363H4.09767V7.18188H3.51738V7.00785H3.51563ZM2.68144 7.06819V7.24613H2.6797V7.24788H2.10332V7.6016H2.10157V7.60335H1.58769V7.7227H1.58595V7.72444H1.13848V8.79907H1.58595V8.80082H1.58769V8.91626H2.10157V8.91801H2.10332V9.27173H2.6797V9.27348H2.68144V9.45285L2.6836 9.45069L3.45139 9.45142V9.27348H3.45313V9.27173H4.03342V8.91801H4.03517V8.91626H4.54514V8.80082H4.54688V8.79907H4.99435V7.72444H4.54298V7.7227H4.54123V7.60335H4.03126V7.6016H4.02951V7.24788H3.44923V7.24613H3.44748V7.06819H2.68144ZM3.44923 7.06645V7.0647H2.6797V7.06645H2.67795V7.24438H2.10157V7.24613H2.09982V7.59985H1.58595V7.6016H1.5842V7.72095H1.13673V7.7227H1.13498V8.80082H1.13673V8.80257H1.5842V8.91801H1.58595V8.91976H2.09982V9.27348H2.10157V9.27523H2.67795V9.45707H2.68144L2.68433 9.45491H3.45313V9.45316H3.45488V9.27523H4.03517V9.27348H4.03691V8.91976H4.54688V8.91801H4.54863V8.80257H4.9961V8.80082H4.99785V7.7227H4.9961V7.72095H4.54473V7.6016H4.54298V7.59985H4.03301V7.24613H4.03126V7.24438H3.45098V7.06645H3.44923Z" fill="black"/>
<path fill-rule="evenodd" clip-rule="evenodd" d="M12 23.382C18.2408 23.382 23.3 18.3228 23.3 12.082C23.3 5.84121 18.2408 0.782031 12 0.782031C5.75918 0.782031 0.7 5.84121 0.7 12.082C0.7 18.3228 5.75918 23.382 12 23.382ZM12 24.082C18.6274 24.082 24 18.7094 24 12.082C24 5.45461 18.6274 0.0820312 12 0.0820312C5.37258 0.0820312 0 5.45461 0 12.082C0 18.7094 5.37258 24.082 12 24.082Z" fill="#D9D9D9"/>
</g>
<defs>
<clipPath id="clip0_3_26942">
<rect y="0.0820312" width="24" height="24" fill="white"/>
</clipPath>
</defs>
</svg>
