<svg width="24" height="25" viewBox="0 0 24 25" fill="none" xmlns="http://www.w3.org/2000/svg">
<g clip-path="url(#clip0_3_38410)">
<path fill-rule="evenodd" clip-rule="evenodd" d="M23.9803 12.7758C23.9934 12.5462 24 12.3149 24 12.082C24 11.8492 23.9934 11.6179 23.9803 11.3883H0.019719C0.00663252 11.6179 0 11.8492 0 12.082C0 12.3149 0.00663254 12.5462 0.019719 12.7758H23.9803ZM23.8202 14.1633H0.179836C0.262017 14.6333 0.371542 15.0938 0.506712 15.5433H23.4933C23.6285 15.0938 23.738 14.6333 23.8202 14.1633ZM22.9817 16.927H1.01828C1.23028 17.4069 1.47281 17.8702 1.7434 18.3145H22.2566C22.5272 17.8702 22.7697 17.4069 22.9817 16.927ZM21.2768 19.6945H2.72324C4.92405 22.3734 8.26248 24.082 12 24.082C15.7375 24.082 19.076 22.3734 21.2768 19.6945ZM0.178527 10.0083H23.8215C23.7391 9.53571 23.6292 9.07263 23.4933 8.62078H0.506712C0.370823 9.07263 0.260852 9.53571 0.178527 10.0083ZM1.01662 7.24078H22.9834C22.7716 6.76097 22.5293 6.29765 22.2589 5.85328H1.74112C1.47074 6.29765 1.22842 6.76097 1.01662 7.24078ZM2.72324 4.46953H21.2768C19.076 1.79071 15.7375 0.0820312 12 0.0820312C8.26248 0.0820312 4.92405 1.79071 2.72324 4.46953Z" fill="#BD3D44"/>
<path fill-rule="evenodd" clip-rule="evenodd" d="M23.8208 10.0046C23.9001 10.4588 23.9539 10.9219 23.9805 11.3921H0.0195312C0.0461898 10.9219 0.0999259 10.4588 0.179205 10.0046H23.8208ZM22.9818 7.2371C23.1795 7.68466 23.3507 8.14657 23.4933 8.62085H0.506734C0.649367 8.14657 0.820554 7.68466 1.0183 7.2371H22.9818ZM21.2768 4.4696C21.6354 4.90616 21.9639 5.36847 22.2589 5.85335H1.74114C2.03617 5.36847 2.36461 4.90616 2.72326 4.4696H21.2768ZM23.8202 14.1634C23.8996 13.7091 23.9535 13.2461 23.9803 12.7759H0.0197458C0.0465517 13.2461 0.100436 13.7091 0.179864 14.1634H23.8202ZM23.4933 15.5434H0.506741C0.649773 16.019 0.82152 16.4821 1.01997 16.9309H22.9801C23.1785 16.4821 23.3503 16.019 23.4933 15.5434ZM22.2589 18.3109H1.74115C2.03703 18.7971 2.36651 19.2607 2.72636 19.6984H21.2737C21.6335 19.2607 21.963 18.7971 22.2589 18.3109Z" fill="white"/>
<path fill-rule="evenodd" clip-rule="evenodd" d="M14.6973 0.386381C13.8303 0.187243 12.9274 0.0820312 12 0.0820312C11.0726 0.0820312 10.1697 0.187243 9.30269 0.386381H14.6973ZM3.98185 3.15388C4.56153 2.63294 5.19222 2.16764 5.86552 1.76638H18.1345C18.8078 2.16764 19.4385 2.63294 20.0181 3.15388H3.98185Z" fill="white"/>
<path fill-rule="evenodd" clip-rule="evenodd" d="M5.86614 22.398C5.19438 21.9978 4.56503 21.5337 3.98643 21.0143H20.0136C19.435 21.5337 18.8056 21.9978 18.1339 22.398H5.86614ZM14.6793 23.7818C13.8178 23.9783 12.921 24.082 12 24.082C11.079 24.082 10.1822 23.9783 9.32068 23.7818H14.6793Z" fill="white"/>
<path fill-rule="evenodd" clip-rule="evenodd" d="M13.68 0.198702V3.08203V12.7758H0.019719C0.00663254 12.5462 0 12.3149 0 12.082C0 8.49795 1.57126 5.28086 4.06253 3.08203C6.17793 1.21494 8.95666 0.0820312 12 0.0820312C12.5702 0.0820312 13.131 0.121796 13.68 0.198702Z" fill="#192F5D"/>
<path fill-rule="evenodd" clip-rule="evenodd" d="M3.32086 3.79508C3.36943 3.74422 3.41845 3.69379 3.46791 3.64379L3.54383 3.88076H3.94883L3.62258 4.11701L3.74258 4.50326L3.42008 4.26326L3.09383 4.49951L3.21758 4.11701L3.10096 4.03158C3.14683 3.98091 3.19312 3.93063 3.23983 3.88076H3.29258L3.32086 3.79508ZM2.0047 5.43935C2.13794 5.23926 2.27703 5.0434 2.42172 4.85201H2.81258L2.48633 5.08451L2.60633 5.47076L2.28758 5.23451L2.0047 5.43935ZM1.42381 6.40747C1.43057 6.39489 1.43736 6.38232 1.44417 6.36976L1.46633 6.43826L1.42381 6.40747ZM0.761221 7.8668C0.774829 7.83054 0.788607 7.79435 0.802555 7.75826H1.02008L1.14008 7.37576L1.26758 7.75826H1.66508L1.34258 7.99451L1.46633 8.38076L1.14008 8.14076L0.817578 8.37701L0.937578 7.99451L0.761221 7.8668ZM5.82383 3.88076L5.70008 3.49451L5.57633 3.88076H5.17133L5.49758 4.11701L5.37383 4.49951L5.70008 4.26326L6.02633 4.50326L5.90258 4.11701L6.22508 3.88076H5.82383ZM8.10383 3.88076L7.98008 3.49451L7.85258 3.88076H7.45133L7.78133 4.11701L7.65383 4.49951L7.98008 4.26326L8.30633 4.50326L8.18258 4.11701L8.50883 3.88076H8.10383ZM10.3838 3.88076L10.2601 3.49451L10.1363 3.88076H9.73508L10.0576 4.11701L9.93383 4.49951L10.2601 4.26326L10.5863 4.50326L10.4626 4.11701L10.7851 3.88076H10.3838ZM12.6638 3.88076L12.5401 3.49451L12.4163 3.88076H12.0113L12.3413 4.11701L12.2138 4.49951L12.5401 4.26326L12.8663 4.50326L12.7388 4.11701L13.0688 3.88076H12.6638ZM4.68758 4.85201L4.56008 4.46951L4.43633 4.85201H4.03133L4.35758 5.08451L4.23383 5.47076L4.56008 5.23451L4.88633 5.47076L4.75883 5.08451L5.08883 4.85201H4.68758ZM6.96383 4.85201L6.84008 4.46951L6.71258 4.85201H6.31508L6.63758 5.08451L6.51383 5.47076L6.84008 5.23451L7.16633 5.47076L7.04258 5.08451L7.36883 4.85201H6.96383ZM9.24758 4.85201L9.12008 4.46951L9.00008 4.85201H8.59133L8.91758 5.08451L8.79758 5.47076L9.12008 5.23451L9.44633 5.47076L9.31883 5.08451L9.64883 4.85201H9.24758ZM11.5238 4.85201L11.4001 4.46951L11.2763 4.85201H10.8751L11.1976 5.08451L11.0738 5.47076L11.4001 5.23451L11.7263 5.47076L11.6026 5.08451L11.9288 4.85201H11.5238ZM3.54383 5.81951L3.42008 5.42951L3.29258 5.81576H2.89508L3.21758 6.05201L3.09383 6.43826L3.42008 6.20201L3.74258 6.43826L3.62258 6.05576L3.94883 5.81951H3.54383ZM5.82383 5.81576L5.70008 5.42951L5.57633 5.81201H5.17133L5.49758 6.04826L5.37383 6.43451L5.70008 6.19826L6.02633 6.43451L5.90258 6.05201L6.22508 5.81576H5.82383ZM8.10383 5.81576L7.98008 5.42951L7.85258 5.81201H7.45133L7.78133 6.04826L7.65383 6.43451L7.98008 6.19826L8.30633 6.43451L8.18258 6.05201L8.50883 5.81576H8.10383ZM10.3838 5.81576L10.2601 5.42951L10.1363 5.81201H9.73508L10.0576 6.04826L9.93383 6.43451L10.2601 6.19826L10.5863 6.43451L10.4626 6.05201L10.7851 5.81576H10.3838ZM12.6638 5.81576L12.5401 5.42951L12.4163 5.81201H12.0113L12.3413 6.04826L12.2138 6.43451L12.5401 6.19826L12.8663 6.43451L12.7388 6.05201L13.0688 5.81576H12.6638ZM2.40383 6.78701L2.28008 6.40451L2.16008 6.78701H1.75883L2.08133 7.02326L1.95758 7.40576L2.28383 7.16951L2.61008 7.40951L2.48633 7.02326L2.81258 6.78701H2.40383ZM4.68758 6.78701L4.56008 6.40451L4.43633 6.78701H4.03133L4.35758 7.02326L4.23383 7.40576L4.56008 7.16951L4.88633 7.40951L4.75883 7.02326L5.08883 6.78701H4.68758ZM6.96383 6.78701L6.84008 6.40451L6.71258 6.78701H6.31508L6.63758 7.02326L6.51383 7.40576L6.84008 7.16951L7.16633 7.40951L7.04258 7.02326L7.36883 6.78701H6.96383ZM9.24758 6.78701L9.12008 6.40451L9.00008 6.78701H8.59133L8.91758 7.02326L8.79758 7.40576L9.12008 7.16951L9.44633 7.40951L9.32258 7.02326L9.64883 6.78701H9.24758ZM11.5238 6.78701L11.4001 6.40451L11.2763 6.78701H10.8751L11.1976 7.02326L11.0738 7.40576L11.4001 7.16951L11.7263 7.40951L11.6026 7.02326L11.9288 6.78701H11.5238ZM3.54383 7.75826L3.42008 7.37576L3.29258 7.75826H2.89508L3.21758 7.99451L3.09383 8.37701L3.42008 8.14076L3.74258 8.37701L3.62258 7.99451L3.94883 7.75826H3.54383ZM5.82383 7.75826L5.70008 7.37576L5.57633 7.75826H5.17133L5.49758 7.99451L5.37383 8.37701L5.70008 8.14076L6.02633 8.38076L5.90258 7.99451L6.22508 7.75826H5.82383ZM8.10383 7.75826L7.98008 7.37576L7.85258 7.75826H7.45133L7.78133 7.99451L7.65383 8.37701L7.98008 8.14076L8.30633 8.38076L8.18258 7.99451L8.50883 7.75826H8.10383ZM10.3838 7.75826L10.2601 7.37576L10.1363 7.75826H9.73508L10.0576 7.99451L9.93383 8.37701L10.2601 8.14076L10.5863 8.38076L10.4626 7.99451L10.7851 7.75826H10.3838ZM12.6638 7.75826L12.5401 7.37576L12.4126 7.75826H12.0076L12.3376 7.99451L12.2138 8.37701L12.5401 8.14076L12.8663 8.38076L12.7388 7.99451L13.0688 7.75826H12.6638ZM2.40383 8.72951L2.28008 8.34326L2.16008 8.72576H1.75883L2.08133 8.96201L1.95758 9.34826L2.28383 9.10826L2.61008 9.34826L2.48633 8.96201L2.81258 8.72951H2.40383ZM4.68758 8.72951L4.56008 8.34326L4.43633 8.72576H4.03133L4.35758 8.96201L4.23383 9.34826L4.56008 9.10826L4.88633 9.34826L4.75883 8.96201L5.08883 8.72951H4.68758ZM6.96383 8.72951L6.84008 8.34326L6.71258 8.72576H6.31508L6.63758 8.96201L6.51383 9.34826L6.84008 9.10826L7.16633 9.34826L7.04258 8.96201L7.36883 8.72951H6.96383ZM9.24758 8.72951L9.12008 8.34326L9.00008 8.72576H8.59133L8.91758 8.96201L8.79758 9.34826L9.12008 9.10826L9.44633 9.34826L9.32258 8.96201L9.64883 8.72951H9.24758ZM11.5238 8.72951L11.4001 8.34326L11.2763 8.72576H10.8751L11.1976 8.96201L11.0738 9.34826L11.4001 9.10826L11.7263 9.34826L11.6026 8.96201L11.9288 8.72951H11.5238ZM1.26758 9.69701L1.14008 9.31076L1.02008 9.69326H0.611328L0.937578 9.92951L0.817578 10.312L1.14008 10.0795L1.46633 10.312L1.34258 9.93326L1.66508 9.69701H1.26758ZM3.54383 9.69701L3.42008 9.31076L3.29258 9.69326H2.89508L3.22133 9.92951L3.09383 10.312L3.42008 10.0795L3.74633 10.312L3.62258 9.93326L3.94883 9.69701H3.54383ZM5.82383 9.69701L5.70008 9.31076L5.57633 9.69326H5.17133L5.49758 9.92951L5.37383 10.312L5.70008 10.0795L6.02633 10.312L5.90258 9.93326L6.22508 9.69701H5.82383ZM8.10383 9.69701L7.98008 9.31076L7.85258 9.69326H7.45133L7.78133 9.92951L7.65383 10.312L7.98008 10.0795L8.30633 10.312L8.18258 9.93326L8.50883 9.69701H8.10383ZM10.3838 9.69701L10.2601 9.31076L10.1363 9.69326H9.73508L10.0576 9.92951L9.93383 10.312L10.2601 10.0795L10.5863 10.312L10.4626 9.93326L10.7851 9.69701H10.3838ZM12.6638 9.69701L12.5401 9.31076L12.4163 9.69326H12.0113L12.3413 9.92951L12.2138 10.312L12.5401 10.0795L12.8663 10.312L12.7388 9.93326L13.0688 9.69701H12.6638ZM2.40383 10.6645L2.28008 10.282L2.16008 10.6645H1.75883L2.08133 10.9008L1.95758 11.2833L2.28383 11.047L2.61008 11.287L2.48633 10.9008L2.81258 10.6645H2.40383ZM4.68758 10.6645L4.56008 10.282L4.43633 10.6645H4.03133L4.35758 10.9008L4.23383 11.2833L4.56008 11.047L4.88633 11.287L4.75883 10.9008L5.08883 10.6645H4.68758ZM6.96383 10.6645L6.84008 10.282L6.71258 10.6645H6.31508L6.63758 10.9008L6.51383 11.2833L6.84008 11.047L7.16633 11.287L7.04258 10.9008L7.36883 10.6645H6.96383ZM9.24758 10.6645L9.12008 10.282L9.00008 10.6645H8.59133L8.91758 10.9008L8.79758 11.2833L9.12008 11.047L9.44633 11.287L9.32258 10.9008L9.64883 10.6645H9.24758ZM11.5238 10.6645L11.4001 10.282L11.2763 10.6645H10.8751L11.1976 10.9008L11.0738 11.2833L11.4001 11.047L11.7263 11.287L11.6026 10.9008L11.9288 10.6645H11.5238ZM1.26758 11.6358L1.14008 11.2533L1.02008 11.632H0.611328L0.937578 11.8683L0.817578 12.2545L1.14008 12.0183L1.46633 12.2545L1.34258 11.872L1.66508 11.6358H1.26758ZM3.54383 11.6358L3.42008 11.2533L3.29258 11.632H2.89508L3.22133 11.8683L3.09383 12.2545L3.42008 12.0183L3.74633 12.2545L3.62258 11.872L3.94883 11.6358H3.54383ZM5.82383 11.6358L5.70008 11.2533L5.58383 11.632H5.17883L5.50508 11.8683L5.38133 12.2545L5.70758 12.0183L6.03383 12.2545L5.91008 11.872L6.22508 11.6358H5.82383ZM8.10383 11.6358L7.98008 11.2533L7.85258 11.632H7.45133L7.78133 11.8683L7.65383 12.2545L7.98008 12.0183L8.30633 12.2545L8.18258 11.872L8.50883 11.6358H8.10383ZM10.3838 11.6358L10.2601 11.2533L10.1363 11.632H9.73508L10.0576 11.8683L9.93383 12.2545L10.2601 12.0183L10.5863 12.2545L10.4626 11.872L10.7851 11.6358H10.3838ZM12.6638 11.6358L12.5401 11.2533L12.4163 11.632H12.0113L12.3413 11.8683L12.2138 12.2545L12.5401 12.0183L12.8663 12.2545L12.7388 11.872L13.0688 11.6358H12.6638Z" fill="white"/>
<path fill-rule="evenodd" clip-rule="evenodd" d="M10.4996 0.174941C10.3472 0.193949 10.1957 0.215814 10.0451 0.24048L9.93383 0.584556L10.2601 0.348306L10.5863 0.588306L10.4626 0.202056L10.4996 0.174941ZM6.57095 1.37751C6.74959 1.28673 6.93081 1.20029 7.11447 1.11832L7.04258 1.16956L7.16633 1.55581L6.84008 1.31581L6.51383 1.55581L6.57095 1.37751ZM5.39428 2.06225C5.52555 1.97554 5.65862 1.89133 5.79344 1.8097L5.82383 1.90456H6.22508L5.90258 2.14081L6.02633 2.51956L5.70008 2.28706L5.37383 2.51956L5.49758 2.13706L5.39428 2.06225ZM4.48306 2.72759C4.52406 2.69461 4.56527 2.66189 4.6067 2.62944L4.68758 2.87206H5.08883L4.75883 3.10831L4.88633 3.49456L4.56008 3.25456L4.23383 3.49081L4.35758 3.10831L4.17999 2.97971C4.22206 2.94354 4.26438 2.90765 4.30695 2.87206H4.43633L4.48306 2.72759ZM12.1716 0.083252C12.404 0.0865097 12.6347 0.0963697 12.8637 0.112655L12.7388 0.202056L12.8663 0.588306L12.5401 0.348306L12.2138 0.584556L12.3376 0.202056L12.1716 0.083252ZM9.12007 0.550806L9.24758 0.937057H9.64882L9.32258 1.16956L9.44632 1.55581L9.12007 1.31581L8.79758 1.55581L8.91758 1.16956L8.59133 0.933307H9.00007L9.12007 0.550806ZM11.4001 0.550806L11.5238 0.937057H11.9288L11.6026 1.16956L11.7263 1.55581L11.4001 1.31581L11.0738 1.55581L11.1976 1.16956L10.8751 0.933307H11.2763L11.4001 0.550806ZM7.98008 1.51831L8.10383 1.90456H8.50882L8.18257 2.14081L8.30633 2.51956L7.98008 2.28706L7.65383 2.51956L7.78133 2.13706L7.45133 1.90081H7.85258L7.98008 1.51831ZM10.2601 1.51831L10.3838 1.90456H10.7851L10.4626 2.14081L10.5863 2.51956L10.2601 2.28706L9.93383 2.51956L10.0576 2.13706L9.73508 1.90081H10.1363L10.2601 1.51831ZM12.5401 1.51831L12.6638 1.90456H13.0688L12.7388 2.14081L12.8663 2.51956L12.5401 2.28706L12.2138 2.51956L12.3413 2.13706L12.0113 1.90081H12.4163L12.5401 1.51831ZM6.84008 2.48956L6.96383 2.87206H7.36883L7.04258 3.10831L7.16633 3.49456L6.84008 3.25456L6.51383 3.49081L6.63758 3.10831L6.31507 2.87206H6.71258L6.84008 2.48956ZM9.12007 2.48956L9.24758 2.87206H9.64882L9.32258 3.10831L9.44632 3.49456L9.12007 3.25456L8.79758 3.49081L8.91758 3.10831L8.59133 2.87206H9.00007L9.12007 2.48956ZM11.4001 2.48956L11.5238 2.87206H11.9288L11.6026 3.10831L11.7263 3.49456L11.4001 3.25456L11.0738 3.49081L11.1976 3.10831L10.8751 2.87206H11.2763L11.4001 2.48956Z" fill="white"/>
<path fill-rule="evenodd" clip-rule="evenodd" d="M12 23.382C18.2408 23.382 23.3 18.3228 23.3 12.082C23.3 5.84121 18.2408 0.782031 12 0.782031C5.75918 0.782031 0.7 5.84121 0.7 12.082C0.7 18.3228 5.75918 23.382 12 23.382ZM12 24.082C18.6274 24.082 24 18.7094 24 12.082C24 5.45461 18.6274 0.0820312 12 0.0820312C5.37258 0.0820312 0 5.45461 0 12.082C0 18.7094 5.37258 24.082 12 24.082Z" fill="#D9D9D9"/>
</g>
<defs>
<clipPath id="clip0_3_38410">
<rect y="0.0820312" width="24" height="24" fill="white"/>
</clipPath>
</defs>
</svg>
