<svg width="24" height="25" viewBox="0 0 24 25" fill="none" xmlns="http://www.w3.org/2000/svg">
<g clip-path="url(#clip0_3_23991)">
<path fill-rule="evenodd" clip-rule="evenodd" d="M12 24.0819C18.6274 24.0819 24 18.7093 24 12.0819C24 5.45449 18.6274 0.0819092 12 0.0819092C5.37258 0.0819092 0 5.45449 0 12.0819C0 18.7093 5.37258 24.0819 12 24.0819Z" fill="white"/>
<path fill-rule="evenodd" clip-rule="evenodd" d="M19.9375 21.0819C22.4287 18.8831 24 15.666 24 12.0819C24 11.046 23.8687 10.0408 23.6219 9.08191H0.378052C0.131259 10.0408 0 11.046 0 12.0819C0 15.666 1.57126 18.8831 4.06253 21.0819H19.9375Z" fill="#0039A6"/>
<path fill-rule="evenodd" clip-rule="evenodd" d="M23.6219 15.0819C22.2898 20.2576 17.5915 24.0819 12 24.0819C6.40848 24.0819 1.71018 20.2576 0.378052 15.0819H23.6219Z" fill="#D52B1E"/>
<path fill-rule="evenodd" clip-rule="evenodd" d="M12 23.3819C18.2408 23.3819 23.3 18.3227 23.3 12.0819C23.3 5.84109 18.2408 0.781909 12 0.781909C5.75918 0.781909 0.7 5.84109 0.7 12.0819C0.7 18.3227 5.75918 23.3819 12 23.3819ZM12 24.0819C18.6274 24.0819 24 18.7093 24 12.0819C24 5.45449 18.6274 0.0819092 12 0.0819092C5.37258 0.0819092 0 5.45449 0 12.0819C0 18.7093 5.37258 24.0819 12 24.0819Z" fill="#D9D9D9"/>
</g>
<defs>
<clipPath id="clip0_3_23991">
<rect y="0.0819092" width="24" height="24" fill="white"/>
</clipPath>
</defs>
</svg>
